<svg width="80" height="80" xmlns="http://www.w3.org/2000/svg"><g fill="none" fill-rule="evenodd"><path d="M13.9778532 15.9420935c12.7738408-8.47664792 26.7586042-9.49880512 41.9542901-3.0664716 5.557985 2.3526951 13.2139227 9.120122 13.1361204 9.1548899-.0778024.0347678-13.672081-.4562105-13.6990325-.4016037-.0096725.0195978-7.8677597-6.8958822-15.4752467-8.1708111-8.3726805-1.4031669-17.011391-.575168-25.9161313 2.4839965z" fill-opacity=".5" fill="#9CC" fill-rule="nonzero"/><path d="M66.5389597 15.247537c-13.3084291-7.52462375-27.3273419-7.52462375-42.0567381 0-5.3874347 2.7522117-12.5730861 10.0613689-12.493153 10.0903793.0799331.0290103 13.6083305-1.4519679 13.6388605-1.3994592.0109569.0188447 7.3883848-7.452744 14.8922558-9.2792501 8.258642-2.0102237 16.931567-1.8141136 26.0187748.58833z" fill-opacity=".6" fill="#369" fill-rule="nonzero"/><path d="M25.0050111 33.5297737c0 1.2252099-.2201838 2.287945-.6605581 3.1882373-.4403743.9002923-1.0134999 1.6381148-1.719394 2.2134896-.7123702.5753747-1.5121557 1.0052071-2.3993803 1.2895099-.8872247.2843029-1.8035781.4264522-2.7490876.4264522h-5.7118852v-.7209072c.1878067 0 .4322755-.0186148.7334138-.0558449s.5002752-.0795365.5974166-.1269203c.1942828-.0879985.3351357-.218302.4225629-.3909144.0874273-.1726125.1311402-.3807596.1311402-.6244478V28.3311193c0-.2301499-.0372369-.4366048-.111712-.6193709-.0744751-.1827661-.221804-.3282999-.4419911-.4366058-.2007589-.1015367-.4177048-.1759958-.6508441-.2233796-.2331393-.0473838-.4338952-.0778444-.6022736-.0913826v-.7209072h6.0227361c.8289398 0 1.6449153.133688 2.4479508.4010681.8030355.26738 1.502443.62783 2.0982435 1.0813607.8095116.6024512 1.4441591 1.3910413 1.9039617 2.3657939.4598026.9747526.6897004 2.1221004.6897004 3.4420778zm-2.3799521-.0101536c0-.9679835-.1230439-1.8428785-.3691354-2.6247113-.2460916-.7818328-.6055093-1.4638109-1.0782641-2.0459548-.4468504-.5550674-.995691-.9916688-1.6465383-1.3098172-.6508473-.3181484-1.3745398-.4772202-2.1710992-.4772202-.2655198 0-.5650346.0050767-.8985534.0152304-.3335188.0101537-.5812256.018615-.7431279.0253841v11.0776014c0 .6159895.1716139 1.0424374.5148468 1.2793564.3432329.236919.8710265.3553768 1.5833967.3553768.8224638 0 1.5412993-.1523028 2.1565281-.456913.6152288-.3046102 1.1138805-.7276735 1.4959699-1.2692028.4015178-.5686056.6945566-1.2268922.8791252-1.9748794.1845687-.7479872.2768516-1.6127287.2768516-2.5942504zM47.1731206 33.5297737c0 1.2252099-.2201838 2.287945-.6605581 3.1882373-.4403743.9002923-1.0134999 1.6381148-1.719394 2.2134896-.7123702.5753747-1.5121557 1.0052071-2.3993804 1.2895099-.8872247.2843029-1.803578.4264522-2.7490876.4264522h-5.7118851v-.7209072c.1878066 0 .4322755-.0186148.7334138-.0558449s.5002752-.0795365.5974165-.1269203c.1942828-.0879985.3351357-.218302.422563-.3909144.0874272-.1726125.1311402-.3807596.1311402-.6244478V28.3311193c0-.2301499-.037237-.4366048-.111712-.6193709-.0744751-.1827661-.221804-.3282999-.4419912-.4366058-.2007588-.1015367-.4177047-.1759958-.650844-.2233796-.2331394-.0473838-.4338952-.0778444-.6022736-.0913826v-.7209072h6.022736c.8289399 0 1.6449153.133688 2.4479508.4010681.8030355.26738 1.502443.62783 2.0982436 1.0813607.8095116.6024512 1.4441591 1.3910413 1.9039617 2.3657939.4598026.9747526.6897004 2.1221004.6897004 3.4420778zm-2.3799521-.0101536c0-.9679835-.123044-1.8428785-.3691355-2.6247113-.2460915-.7818328-.6055092-1.4638109-1.078264-2.0459548-.4468504-.5550674-.995691-.9916688-1.6465383-1.3098172-.6508474-.3181484-1.3745399-.4772202-2.1710993-.4772202-.2655198 0-.5650345.0050767-.8985533.0152304s-.5812256.018615-.7431279.0253841v11.0776014c0 .6159895.1716138 1.0424374.5148468 1.2793564.3432329.236919.8710265.3553768 1.5833967.3553768.8224638 0 1.5412993-.1523028 2.1565281-.456913.6152288-.3046102 1.1138804-.7276735 1.4959699-1.2692028.4015177-.5686056.6945565-1.2268922.8791252-1.9748794.1845686-.7479872.2768516-1.6127287.2768516-2.5942504zM31.8945216 40.6474627h-6.2073038v-.7209072c.1748545-.0135382.4274184-.0338453.7576991-.0609217.3302807-.0270765.5634166-.0676906.6994145-.1218435.2137111-.0879985.369135-.2081485.4662764-.3604536.0971413-.1523051.1457113-.3638367.1457113-.6346013V28.3108121c0-.2369191-.035618-.4349127-.106855-.5939869-.071237-.1590742-.2396129-.2927622-.5051327-.4010681-.1942828-.0812294-.4387516-.1573808-.7334138-.2284565-.2946622-.0710757-.5358931-.113382-.7236998-.1269202v-.7209072h6.2073038v.7209072c-.2007588.0067691-.4403707.0321529-.7188427.0761521-.2784719.0439993-.5213218.0998436-.7285567.1675348-.2460916.0812294-.4112294.2132251-.4954187.3959912-.0841892.1827661-.1262831.3858366-.1262831.6092174v10.4277696c0 .2233808.0469509.4213745.1408543.5939869.0939033.1726124.2541842.309685.4808475.4112217.1359979.0541529.3578008.1133818.6654152.1776884.3076144.0643066.5682732.0998439.7819842.106613v.7209072z" fill="#000"/><path d="M55.0840433 41.7350607c-1.9554002-1.6767982-2.9331002-4.3257331-2.9331002-7.9468049 0-3.6210716.9777-6.2572419 2.9331002-7.9085109l-.2814311-.2341135c-2.8629737 2.983521-4.248943 5.7146035-4.1579081 8.1932476.0910349 2.4786442 1.4770043 5.1924172 4.1579081 8.141319l.2814311-.2451373zM65.2771322 41.7350607c1.9554002-1.6767982 2.9331002-4.3257331 2.9331002-7.9468049 0-3.6210716-.9777-6.2572419-2.9331002-7.9085109l.2814311-.2341135c2.8629737 2.983521 4.2489431 5.7146035 4.1579082 8.1932476-.0910349 2.4786442-1.4770043 5.1924172-4.1579082 8.141319l-.2814311-.2451373z" fill="#99CCCD" fill-rule="nonzero"/><path d="M59.3933076 40.3503967h-3.6407023v-.5265378c.1170322-.0106372.2378789-.0212742.3625437-.0319114.1246648-.0106372.2327908-.0319112.3243813-.0638228.142474-.0478673.2480559-.1316338.3167487-.2513021.0686928-.1196683.1030387-.2752347.1030387-.466704v-4.8585081c0-.1701949-.03689-.3257613-.1106712-.4667039-.0737812-.1409427-.1768189-.2592796-.3091162-.3550142-.0966789-.0638231-.2366066-.1183378-.4197875-.1635458-.1831809-.045208-.3510942-.0731302-.503745-.0837674v-.51856l2.6561099-.1755126.106855.1116899v6.414188c0 .1861506.0343459.3403874.1030387.462715.0686929.1223276.1768189.2127423.3243813.2712468.1119438.0478673.2213419.0864265.3281974.1156787.1068556.0292523.2264302.0491967.3587275.0598339v.5265378zm-.9616949-11.0652721c0 .3031597-.0954053.5677556-.2862188.7937957-.1908134.2260401-.4261465.3390584-.7060062.3390584-.2595063 0-.4846628-.1076998-.6754762-.3231027-.1908134-.215403-.2862187-.4613841-.2862187-.7379508 0-.2925224.0954053-.547811.2862187-.7658732.1908134-.2180622.4159699-.3270916.6754762-.3270916.2900364 0 .5279136.1023813.7136387.307147.1857251.2047658.2785863.4427691.2785863.7140172zm6.5334196 10.7222247c-.3307433.143602-.6436726.2645981-.9387974.362992-.2951248.0983939-.6563928.1475902-1.083815.1475902-.6309564 0-1.074909-.1662035-1.3318711-.4986154-.2569621-.3324119-.3854413-.8017705-.3854413-1.4080898v-5.329201h-1.3585849v-.7658731h1.3891149v-2.4491987h1.389115v2.4491987h2.1599974v.7658731h-2.1447324v4.3957931c0 .3297526.0114486.6049855.0343462.825707.0228976.2207215.0775967.4135175.1640987.5783938.0814138.1542391.2035326.2712464.36636.3510252.1628275.0797789.3816236.1196677.656395.1196677.127209 0 .3142033-.0119666.5609887-.0359003.2467854-.0239336.4210591-.0545151.5228262-.0917452v.5823827z" fill="#336496"/><path d="M28.2352941 44.9257426c.2655242.1753309.4799829.40893.6433824.7008044.1633995.2918744.245098.6492347.245098 1.0720916 0 .371289-.0730181.694615-.2190564.9699876-.1460383.2753727-.3395617.5007211-.5805759.676052-.2450993.1753309-.5233849.3057958-.8348652.3913985-.3114804.0856028-.6377639.1284035-.9788603.1284035h-2.1905638v-.2413366c.0653598-.0020628.1470584-.0082508.2450981-.0185644.0980397-.0103136.1633985-.0226897.1960784-.0371287.0735298-.0309408.1245914-.0727101.1531863-.1253094.0285949-.0525993.0428921-.1160269.0428921-.1902847v-3.1126237c0-.0701324-.013276-.13356-.0398284-.1902847-.0265524-.0567247-.0786352-.1026194-.15625-.1376856-.0776148-.0350662-.1598239-.0587871-.2466299-.0711634-.086806-.0123763-.1536967-.020627-.200674-.0247525v-.2413366h2.3131127c.2471418 0 .5116408.0319716.7935049.0959158.2818642.0639443.5535118.1825487.814951.3558169zm-.625 3.1466584c.1000822-.1650173.1731003-.3614881.2190564-.5894183.0459561-.2279302.0689338-.490407.0689338-.7874381 0-.2908431-.0306369-.5558982-.0919118-.7951733-.0612748-.2392751-.1511431-.443481-.2696078-.6126238-.1184646-.1691427-.2660326-.3001233-.4427083-.3929455-.1766757-.0928223-.3773478-.1392327-.6020221-.1392327-.0714873 0-.1526752.001547-.2435662.0046411-.0908909.0030941-.1588028.0056724-.2037377.0077351v3.332302c0 .0742578.0097017.1397481.0291054.1964728.0194037.0567247.0525937.1067448.0995711.1500619.0469773.043317.1046769.0768357.1731005.1005569.0684235.0237212.1577813.0355817.2680759.0355817.2308018 0 .4289208-.0433164.5943628-.1299505.165442-.0866341.2992233-.2134893.401348-.3805693zm4.3351716.7920792h-2.411152v-.2413366c.0551474-.0041255.1363353-.0103135.2435662-.0185644.1072309-.0082509.1812702-.020627.2221201-.0371287.0755723-.0309408.1271445-.0716788.1547181-.1222154.0275737-.0505365.0413603-.1149954.0413603-.1933787v-3.1126237c0-.0701324-.013276-.132013-.0398284-.1856436s-.0786352-.096947-.15625-.1299505c-.0490199-.0206272-.1215273-.0417697-.2175245-.0634282-.0959972-.0216585-.178717-.036613-.2481618-.0448639v-.2413366h2.411152v.2413366c-.0612748.0061882-.1378672.0149546-.2297794.0262995-.0919122.011345-.1695259.0273308-.2328432.047958-.0796572.0268153-.1327613.0685847-.1593137.1253094-.0265524.0567247-.0398284.1211836-.0398284.1933787v3.1095297c0 .0742578.0137866.1376854.0413603.1902846.0275736.0525993.0801671.0954.1577818.1284035.0428924.0185645.113868.0366129.212929.054146.0990609.0175331.1822913.0283622.2496936.0324877v.2413366zm5.245098-1.7852723c-.0633173.0061882-.119485.0134076-.1685049.0216584-.0490198.0082509-.1102937.0247524-.1838235.049505-.0837423.0268153-.1388888.071163-.1654412.1330445-.0265524.0618815-.0398284.1268561-.0398284.1949258v.5105198c0 .1031358.0010212.1861589.0030637.2490718.0020425.0629128.0051062.1407792.0091912.2336015-.2042494.1237629-.5060233.2403047-.9053309.3496287-.3993075.1093239-.7664403.1639851-1.1014093.1639851-.3145441 0-.60968-.0484731-.8854167-.1454208-.2757366-.0969477-.5177685-.242367-.7261029-.4362624-.2083344-.1918326-.3722421-.4300728-.491728-.7147277-.1194858-.2846549-.1792279-.6105592-.1792279-.9777227 0-.342411.0561677-.6590332.1685049-.9498763.1123372-.290843.274713-.5414593.4871324-.7518564.2083343-.2083344.4621104-.3692239.7613357-.4826733.2992254-.1134494.6306151-.1701733.994179-.1701733.2471417 0 .4758976.0304247.6862745.0912748.2103768.0608501.3839862.1263404.5208333.1964728l.189951-.1701733h.2665441l.0275735 1.6027228h-.2696078c-.1552295-.480613-.3410937-.8374576-.557598-1.0705446-.2165044-.233087-.4901945-.3496287-.8210785-.3496287-.3921588 0-.694954.1732656-.9083946.519802-.2134406.3465364-.3201593.8240481-.3201593 1.4325495 0 .6456303.1046762 1.1509883.3140319 1.5160891.2093556.3651008.5060234.5476485.8900122.5476485.1797395 0 .3395622-.0273306.4794731-.0819926.1399108-.0546619.248672-.1180895.3262867-.1902846v-.8910891c0-.0742578-.013276-.1366541-.0398284-.1871906-.0265524-.0505366-.0796565-.0943686-.1593137-.1314975-.0612749-.0288781-.1378672-.052599-.2297794-.0711634-.0919123-.0185645-.1685046-.0319719-.2297795-.0402228v-.2413366h2.2579657v.2413366zm2.6164216 1.7852723h-2.411152v-.2413366c.0551474-.0041255.1363353-.0103135.2435662-.0185644.1072309-.0082509.1812702-.020627.2221201-.0371287.0755723-.0309408.1271445-.0716788.1547181-.1222154.0275737-.0505365.0413603-.1149954.0413603-.1933787v-3.1126237c0-.0701324-.013276-.132013-.0398284-.1856436s-.0786352-.096947-.15625-.1299505c-.0490198-.0206272-.1215273-.0417697-.2175245-.0634282-.0959972-.0216585-.178717-.036613-.2481618-.0448639v-.2413366h2.411152v.2413366c-.0612748.0061882-.1378672.0149546-.2297794.0262995-.0919122.011345-.1695258.0273308-.2328432.047958-.0796572.0268153-.1327613.0685847-.1593137.1253094-.0265524.0567247-.0398284.1211836-.0398284.1933787v3.1095297c0 .0742578.0137866.1376854.0413603.1902846.0275736.0525993.0801671.0954.1577818.1284035.0428924.0185645.113868.0366129.212929.054146.0990609.0175331.1822913.0283622.2496936.0324877v.2413366zm4.4454657-3.1342822h-.2359069c-.0633173-.1877072-.1649298-.388819-.3048407-.6033416-.1399108-.2145225-.2690966-.3300329-.3875612-.3465346-.0653598-.0082509-.1460371-.0154703-.2420344-.0216584-.0959972-.0061882-.1787169-.0092822-.2481617-.0092822h-.1439951v3.4436881c0 .0742578.013276.1397481.0398284.1964728.0265524.0567247.0786352.1015881.15625.1345916.0469774.0185644.1199954.0376443.2190564.0572401.0990609.0195958.1833125.0335189.2527573.0417698v.2413366h-2.4234068v-.2413366c.0592323-.0061882.1424627-.0149546.2496936-.0262995.1072309-.011345.180249-.0252681.2190564-.0417698.0796572-.0330035.1327613-.0773512.1593137-.1330446.0265524-.0556933.0398284-.1216993.0398284-.1980198v-3.4746287h-.1439951c-.0694448 0-.1521645.003094-.2481617.0092822-.0959972.0061881-.1766745.0134075-.2420343.0216584-.1184647.0165017-.2476505.1320121-.3875613.3465346-.1399108.2145226-.2415234.4156344-.3048407.6033416h-.2359069v-1.2561881h4.2126226v1.2561881zm4.9693627 3.1342822h-2.3682598v-.2413366c.1102947-.0082509.2399911-.0283621.3890932-.0603342.149102-.0319721.2236519-.0716788.2236519-.1191213 0-.0165017-.0015318-.0350659-.0045956-.0556931-.0030637-.0206271-.0117442-.0484734-.0260416-.0835396l-.3707108-.9096534h-1.5012255c-.0347224.0845714-.0730186.1835803-.1148897.2970297-.0418711.1134494-.0781249.214521-.1087623.3032178-.0388074.1155121-.0617851.1990509-.0689338.2506188-.0071487.0515679-.010723.0876649-.010723.1082921 0 .0660069.0495297.1222151.1485907.1686262.0990609.0464112.2639898.0799298.4947916.100557v.2413366h-1.7830882v-.2413366c.0674023-.0041255.143484-.0149546.2282475-.0324877.0847635-.0175331.1516542-.0417696.2006741-.0727104.0837422-.0495052.1547178-.1103544.2129289-.1825495.058211-.072195.1067196-.1577965.1455269-.2568069.2369293-.5796234.4743657-1.1602694.7123162-1.7419554.2379505-.5816861.5009177-1.2231813.7889093-1.924505h.6127451c.4003288.9942294.7138469 1.7801126.9405637 2.3576733.2267169.5775606.4197296 1.0561037.5790442 1.4356435.0265524.0618815.060253.1180897.1011029.1686263.0408499.0505365.0990601.098494.1746324.1438737.0571898.0330035.1235698.0577557.1991421.0742575.0755723.0165017.1439948.0268151.2052696.0309406v.2413366zm-2.2824755-1.7759901l-.6311274-1.5903465-.6219363 1.5903465h1.2530637zm6.4123775.3681931l-.0857843 1.407797h-4.0042892v-.2413366c.0714872-.0061882.1552282-.0159859.2512254-.0293936.0959973-.0134077.1593136-.0262994.189951-.0386757.0735298-.0288781.1245914-.0691004.1531863-.1206684.0285949-.0515679.0428922-.1175738.0428922-.1980198v-3.0971534c0-.0742578-.0112336-.1356227-.033701-.1840966-.0224675-.0484738-.0765927-.0923059-.1623775-.1314975-.0633173-.028878-.139399-.0520832-.2282475-.0696163-.0888485-.0175331-.1598241-.0304249-.2129289-.0386758v-.2413366h2.3866421v.2413366c-.0653598.0061882-.1424628.0149546-.2313113.0262995-.0888484.011345-.1659514.0273308-.2313112.047958-.0796573.0268153-.1327613.0685847-.1593138.1253094-.0265524.0567247-.0398284.1211836-.0398284.1933787v2.8867574c0 .1361393.0091911.243399.0275735.3217822.0183825.0783832.0541256.1361384.1072304.1732673.0531049.0391916.1271442.0644595.2221201.0758045.094976.0113449.2262043.0170173.3936888.0170173.1633995 0 .322201-.0097978.4764093-.0293936.1542083-.0195958.2650119-.0623965.3324142-.1284034.1041672-.1051986.2108859-.2531963.3201593-.4439976.1092734-.1908012.1965887-.3656139.2619485-.524443h.223652z" fill="#333"/><path d="M17.7218137 56.2376238h-2.4111519v-.2413367c.0551473-.0041254.1363352-.0103135.2435661-.0185643.107231-.0082509.1812703-.020627.2221201-.0371287.0755723-.0309408.1271445-.0716788.1547182-.1222154.0275736-.0505365.0413603-.1149955.0413603-.1933787v-3.1126238c0-.0701323-.013276-.1320129-.0398285-.1856435-.0265524-.0536307-.0786352-.0969471-.15625-.1299505-.0490198-.0206272-.1215273-.0417697-.2175245-.0634282-.0959972-.0216586-.1787169-.036613-.2481617-.0448639v-.2413366h2.4111519v.2413366c-.0612748.0061881-.1378672.0149546-.2297794.0262995s-.1695258.0273308-.2328431.0479579c-.0796573.0268153-.1327613.0685847-.1593137.1253094-.0265525.0567247-.0398285.1211837-.0398285.1933787v3.1095297c0 .0742578.0137866.1376854.0413603.1902847.0275737.0525993.0801671.0954.1577819.1284035.0428923.0185644.1138679.0366129.2129289.054146.099061.0175331.1822913.0283622.2496936.0324876v.2413367zm5.3982843-4.1491337c-.0571898.0061881-.1388883.0175329-.245098.0340347-.1062097.0165017-.2022055.0567241-.2879902.1206683-.0755723.0556933-.1291869.1510925-.1608456.2862005-.0316586.1351079-.0474877.3336414-.0474877.5956064v3.1373762h-.5453432L19.125 52.8681931v2.0606435c0 .2557769.0168503.450185.0505515.5832302.0337011.1330453.088337.2305071.1639093.2923886.0551473.0453798.1429732.0856022.2634804.1206684.1205071.0350661.2165029.058787.2879902.0711633v.2413367h-1.8688726v-.2413367c.0796573-.0061881.1710575-.0211426.2742035-.0448638.1031459-.0237213.18944-.0603339.2588848-.1098391.0796572-.0598188.1342931-.1500613.1639093-.2707302.0296161-.120669.044424-.3233278.044424-.6079827v-2.0792079c0-.1031359-.0158291-.2005978-.0474878-.2923886-.0316586-.0917909-.0811883-.1706887-.1485906-.2366956-.0714873-.0701324-.1536965-.1253092-.2466299-.1655322-.0929335-.0402229-.198631-.0716789-.3170956-.0943688v-.2475247h1.6360294l2.377451 2.970297v-1.6615099c0-.2640277-.017361-.4604985-.0520834-.5894183-.0347224-.1289198-.0898689-.224319-.1654411-.2862005-.0592324-.0474425-.1470583-.0881805-.2634804-.1222154-.1164222-.0340348-.2103755-.05724-.2818628-.0696163v-.2413366h1.8658088v.2413366zm5.2665442 0c-.0571899.0061881-.1388884.0175329-.2450981.0340347-.1062097.0165017-.2022054.0567241-.2879902.1206683-.0755723.0556933-.1291869.1510925-.1608456.2862005-.0316586.1351079-.0474877.3336414-.0474877.5956064v3.1373762h-.5453431l-2.7083334-3.3941831v2.0606435c0 .2557769.0168503.450185.0505515.5832302.0337011.1330453.088337.2305071.1639093.2923886.0551473.0453798.1429733.0856022.2634804.1206684.1205071.0350661.2165029.058787.2879902.0711633v.2413367h-1.8688726v-.2413367c.0796573-.0061881.1710575-.0211426.2742035-.0448638.1031459-.0237213.18944-.0603339.2588848-.1098391.0796572-.0598188.1342931-.1500613.1639093-.2707302.0296162-.120669.044424-.3233278.044424-.6079827v-2.0792079c0-.1031359-.0158291-.2005978-.0474877-.2923886-.0316587-.0917909-.0811884-.1706887-.1485907-.2366956-.0714873-.0701324-.1536965-.1253092-.2466299-.1655322-.0929335-.0402229-.198631-.0716789-.3170956-.0943688v-.2475247H24.90625l2.377451 2.970297v-1.6615099c0-.2640277-.017361-.4604985-.0520834-.5894183-.0347223-.1289198-.0898689-.224319-.1654411-.2862005-.0592324-.0474425-.1470583-.0881805-.2634804-.1222154-.1164222-.0340348-.2103755-.05724-.2818628-.0696163v-.2413366h1.8658089v.2413366zm4.2892156.2475248c.2144619.1980207.384497.4372923.5101103.7178217.1256134.2805295.1884192.6002458.1884192.9591584 0 .3197211-.0531041.6239673-.1593138.9127476s-.2593944.5373339-.4595588.7456683c-.2103769.2165852-.4575149.3852098-.7414216.5058787-.2839066.1206689-.6219343.1810025-1.0140931.1810025-.3165866 0-.6158074-.0525985-.8976716-.1577971-.2818641-.1051985-.5300234-.2578372-.7444853-.4579207-.2124193-.1959581-.3809225-.4341983-.5055147-.7147278-.1245921-.2805294-.1868872-.5930263-.1868872-.9375 0-.3589127.0607633-.6843013.1822916-.9761757.1215284-.2918744.2884998-.541975.5009192-.7503094.2103768-.204209.460068-.3614887.7490808-.4718441.2890129-.1103553.5969143-.1655322.9237133-.1655322.3247565 0 .6295941.0536299.914522.1608911.2849279.1072613.5315554.256806.7398897.4486387zm-.7873774 3.1404702c.0919122-.1877072.1582923-.4001638.1991421-.6373762.0408499-.2372124.0612746-.5053615.0612746-.8044554 0-.2537142-.0178716-.5007208-.0536152-.7410273-.0357437-.2403064-.096507-.4543101-.1822917-.6420173-.0878272-.1877072-.2042476-.3382833-.3492647-.4517327-.1450171-.1134494-.3257751-.1701732-.5422794-.1701732-.3696914 0-.6505301.1768753-.8425245.5306312-.1919945.3537559-.2879902.8534414-.2879902 1.4990717 0 .2743413.0209352.5332084.0628063.776609.0418712.2434005.1077406.4558571.1976103.6373762.0919123.1835818.2083327.3264227.3492647.4285272.1409321.1021045.3145415.153156.5208334.153156.2022069 0 .3758162-.0515672.5208333-.154703.1450171-.1031358.2604162-.2444298.346201-.4238862zM38.5 52.0946782c-.0674023.0061882-.1317399.0185643-.1930147.0371287-.0612748.0185645-.1245912.0474421-.189951.0866337-.0878272.0515679-.1557391.1067447-.2037377.1655322-.0479986.0587874-.0954859.1397478-.1424633.2428836-.0633173.1423275-.1521644.3501431-.2665441.623453-.1143796.27331-.2450973.5842598-.3921568.9328589-.1307197.3135329-.2721602.6569701-.424326 1.0303218-.1521658.3733517-.2976913.7312277-.4365809 1.0736386h-.6158088c-.2859492-.7075118-.5770002-1.4263577-.8731618-2.1565594-.2961616-.7302017-.5044929-1.2376223-.625-1.5222772-.0469774-.1031359-.0924222-.1810022-.1363358-.2336015-.0439136-.0525993-.113868-.1067448-.2098652-.1624381-.0694448-.0391916-.1307187-.0665222-.1838235-.0819926-.0531048-.0154704-.1235698-.0293935-.2113971-.0417698v-.2413366h2.3560049v.2351485c-.2205893.0268153-.3701997.0551772-.4488357.0850866-.0786361.0299094-.1179535.0675534-.1179535.1129332 0 .0226899.0035743.0469264.0107231.0727104.0071487.0257839.0178716.0603339.0321691.103651.0653598.181519.1838226.4780301.3553921.889542.1715695.411512.4258562 1.0390841.7628677 1.8827352.2062919-.5136164.3778588-.9478118.5147059-1.302599.1368471-.3547873.2573524-.6683155.3615196-.9405941.0510623-.1320138.0934434-.2552593.1271446-.3697401.0337011-.1144807.0505514-.2005979.0505514-.2583539 0-.066007-.0469766-.1211838-.1409313-.1655322-.0939547-.0443484-.2675641-.0768357-.5208334-.0974629v-.2475247H38.5v.2475247zm4.8039216 4.1429456h-2.3682598v-.2413367c.1102946-.0082508.239991-.028362.3890931-.0603341.1491021-.0319721.223652-.0716788.223652-.1191213 0-.0165017-.0015319-.0350659-.0045956-.0556931-.0030638-.0206272-.0117442-.0484734-.0260417-.0835396l-.3707108-.9096535h-1.5012255c-.0347224.0845714-.0730185.1835803-.1148897.2970297-.0418711.1134495-.0781248.2145211-.1087622.3032179-.0388074.1155121-.0617851.1990509-.0689339.2506188-.0071487.0515679-.010723.0876649-.010723.1082921 0 .0660069.0495297.1222151.1485907.1686262.0990609.0464111.2639899.0799298.4947917.1005569v.2413367h-1.7830883v-.2413367c.0674023-.0041254.1434841-.0149545.2282476-.0324876.0847635-.0175331.1516541-.0417696.200674-.0727104.0837422-.0495052.1547178-.1103544.2129289-.1825495.0582111-.0721951.1067196-.1577965.145527-.2568069.2369293-.5796234.4743656-1.1602694.7123162-1.7419555.2379505-.581686.5009176-1.2231813.7889093-1.9245049h.6127451c.4003288.9942294.7138469 1.7801126.9405637 2.3576732.2267168.5775607.4197296 1.0561038.5790441 1.4356436.0265524.0618815.0602531.1180897.101103.1686262.0408498.0505366.09906.098494.1746323.1438738.0571898.0330035.1235699.0577557.1991422.0742574.0755722.0165018.1439948.0268152.2052696.0309406v.2413367zm-2.2824755-1.7759901l-.6311275-1.5903466-.6219362 1.5903466h1.2530637zm6.3633578-1.3582921h-.2359068c-.0633174-.1877072-.1649299-.3888191-.3048407-.6033416-.1399109-.2145225-.2690967-.3300329-.3875613-.3465347-.0653598-.0082508-.1460371-.0154702-.2420343-.0216584-.0959972-.0061881-.178717-.0092821-.2481618-.0092821h-.1439951v3.4436881c0 .0742578.013276.139748.0398285.1964727.0265524.0567247.0786352.1015882.15625.1345916.0469773.0185645.1199954.0376443.2190563.0572401.099061.0195958.1833126.033519.2527574.0417698v.2413367h-2.4234069v-.2413367c.0592323-.0061881.1424627-.0149545.2496936-.0262995.107231-.0113449.180249-.025268.2190564-.0417698.0796573-.0330034.1327613-.0773512.1593137-.1330445.0265525-.0556934.0398285-.1216993.0398285-.1980198v-3.4746287h-.1439951c-.0694448 0-.1521646.003094-.2481618.0092821-.0959972.0061882-.1766745.0134076-.2420343.0216584-.1184646.0165018-.2476504.1320122-.3875613.3465347-.1399108.2145225-.2415234.4156344-.3048407.6033416h-.2359068v-1.2561881h4.2126225v1.2561881zm2.6439951 3.1342822h-2.4111519v-.2413367c.0551473-.0041254.1363352-.0103135.2435661-.0185643.107231-.0082509.1812703-.020627.2221201-.0371287.0755723-.0309408.1271445-.0716788.1547182-.1222154.0275736-.0505365.0413603-.1149955.0413603-.1933787v-3.1126238c0-.0701323-.013276-.1320129-.0398285-.1856435-.0265524-.0536307-.0786352-.0969471-.15625-.1299505-.0490198-.0206272-.1215273-.0417697-.2175245-.0634282-.0959972-.0216586-.1787169-.036613-.2481617-.0448639v-.2413366h2.4111519v.2413366c-.0612748.0061881-.1378672.0149546-.2297794.0262995s-.1695258.0273308-.2328431.0479579c-.0796573.0268153-.1327613.0685847-.1593138.1253094-.0265524.0567247-.0398284.1211837-.0398284.1933787v3.1095297c0 .0742578.0137866.1376854.0413603.1902847.0275737.0525993.0801671.0954.1577819.1284035.0428923.0185644.1138679.0366129.2129289.054146.0990609.0175331.1822913.0283622.2496936.0324876v.2413367zm4.4209559-3.9016089c.2144619.1980207.3844969.4372923.5101103.7178217.1256134.2805295.1884191.6002458.1884191.9591584 0 .3197211-.053104.6239673-.1593137.9127476s-.2593944.5373339-.4595588.7456683c-.2103769.2165852-.457515.3852098-.7414216.5058787-.2839067.1206689-.6219343.1810025-1.0140931.1810025-.3165866 0-.6158075-.0525985-.8976716-.1577971-.2818642-.1051985-.5300234-.2578372-.7444853-.4579207-.2124194-.1959581-.3809226-.4341983-.5055147-.7147278-.1245921-.2805294-.1868873-.5930263-.1868873-.9375 0-.3589127.0607633-.6843013.1822917-.9761757.1215284-.2918744.2884998-.541975.5009191-.7503094.2103769-.204209.460068-.3614887.7490809-.4718441.2890129-.1103553.5969142-.1655322.9237132-.1655322.3247566 0 .6295942.0536299.9145221.1608911.2849279.1072613.5315553.256806.7398897.4486387zm-.7873774 3.1404702c.0919122-.1877072.1582922-.4001638.1991421-.6373762.0408499-.2372124.0612745-.5053615.0612745-.8044554 0-.2537142-.0178715-.5007208-.0536152-.7410273-.0357436-.2403064-.0965069-.4543101-.1822916-.6420173-.0878273-.1877072-.2042477-.3382833-.3492648-.4517327-.145017-.1134494-.325775-.1701732-.5422794-.1701732-.3696914 0-.65053.1768753-.8425245.5306312-.1919944.3537559-.2879902.8534414-.2879902 1.4990717 0 .2743413.0209353.5332084.0628064.776609.0418711.2434005.1077406.4558571.1976103.6373762.0919122.1835818.2083326.3264227.3492647.4285272.1409321.1021045.3145415.153156.5208333.153156.2022069 0 .3758163-.0515672.5208334-.154703.145017-.1031358.2604162-.2444298.346201-.4238862zm6.9087009-3.387995c-.0571898.0061881-.1388883.0175329-.245098.0340347-.1062097.0165017-.2022055.0567241-.2879902.1206683-.0755723.0556933-.1291869.1510925-.1608456.2862005-.0316586.1351079-.0474877.3336414-.0474877.5956064v3.1373762h-.5453432l-2.7083333-3.3941831v2.0606435c0 .2557769.0168503.450185.0505515.5832302.0337011.1330453.088337.2305071.1639093.2923886.0551473.0453798.1429732.0856022.2634804.1206684.1205071.0350661.2165029.058787.2879902.0711633v.2413367h-1.8688726v-.2413367c.0796573-.0061881.1710575-.0211426.2742034-.0448638.103146-.0237213.1894401-.0603339.2588849-.1098391.0796572-.0598188.1342931-.1500613.1639093-.2707302.0296161-.120669.044424-.3233278.044424-.6079827v-2.0792079c0-.1031359-.0158291-.2005978-.0474878-.2923886-.0316586-.0917909-.0811883-.1706887-.1485906-.2366956-.0714873-.0701324-.1536965-.1253092-.2466299-.1655322-.0929335-.0402229-.198631-.0716789-.3170956-.0943688v-.2475247h1.6360294l2.377451 2.970297v-1.6615099c0-.2640277-.017361-.4604985-.0520834-.5894183-.0347224-.1289198-.0898689-.224319-.1654412-.2862005-.0592323-.0474425-.1470582-.0881805-.2634803-.1222154-.1164222-.0340348-.2103755-.05724-.2818628-.0696163v-.2413366h1.8658088v.2413366zm6.697304 4.1491337h-1.8014706c-.0490199-.0556934-.1123362-.1284031-.189951-.2181312-.0776148-.0897282-.1439948-.1696573-.1991422-.2397896-.2165043.2021462-.4324948.3470499-.6479779.4347153-.2154831.0876655-.4447496.1314975-.6878064.1314975-.3819463 0-.6949538-.1041656-.9390318-.3125-.2440781-.2083343-.3661152-.4795775-.3661152-.8137376 0-.16708.0219564-.3104367.0658701-.4300742.0439136-.1196376.1148892-.2392734.2129289-.3589109.0939547-.1155122.2103751-.2191621.3492647-.310953.1388896-.0917909.295138-.177908.46875-.258354-.1838245-.2351497-.311989-.4352302-.3844976-.6002475-.0725085-.1650173-.1087622-.3341575-.1087622-.5074257 0-.2970312.1225478-.5419751.367647-.7348391.2450993-.192864.5381928-.2892946.8792893-.2892946.318629 0 .5770006.0763194.7751225.2289604.1981219.152641.2971814.3547842.2971814.6064356 0 .218648-.0592315.4140875-.1776961.5863243-.1184647.1722368-.3155624.3408614-.591299.5058787.2226318.2887803.3947093.505878.5162377.6512995.1215284.1454215.2833936.3367356.4856005.573948.1286771-.1918326.2251835-.3681922.2895221-.5290841.0643385-.1608919.0965073-.2959978.0965073-.4053218 0-.0618815-.0454448-.1119016-.1363358-.1500619-.0908909-.0381602-.2190555-.0737416-.3844975-.106745v-.2351485h1.7126225v.2351485c-.1858669.0165017-.3232226.0391912-.412071.0680693-.0888485.028878-.1761638.0876646-.2619486.1763614-.0367649.0371289-.0822097.1026191-.1363358.1964727-.054126.0938536-.1056982.1840961-.1547181.2707302-.0592323.1051986-.1225487.2155523-.189951.3310644-.0674023.1155121-.1491008.2361792-.245098.3620049.1879094.2227734.342626.3893353.4641544.4996906.1215284.1103554.2210985.1861591.2987132.2274134.0878273.0474425.1991415.0850865.3339461.1129332.1348046.0278466.268586.0458951.4013481.054146v.2475248zm-2.3743873-3.6262377c0-.181519-.0434023-.32436-.1302083-.4285272-.086806-.1041672-.1996521-.15625-.3385417-.15625-.1327621 0-.2399914.0428007-.3216912.1284035-.0816997.0856027-.122549.1975034-.122549.3357054 0 .1196376.0377856.2552592.1133578.4068688.0755723.1516097.1919927.3357044.3492648.5522896.1552295-.1093239.2690968-.2366948.3416053-.3821163.0725086-.1454215.1087623-.2975446.1087623-.4563738zm.0214461 2.967203c-.1715695-.2083344-.3712203-.4506999-.5989584-.727104-.227738-.276404-.4396436-.5393964-.635723-.7889851-.1082522.1072613-.1863764.2325694-.234375.3759282-.0479986.1433588-.0719975.2872311-.0719975.4316213 0 .2743413.0868046.4981427.2604166.6714109.173612.1732682.394198.259901.6617647.259901.1245922 0 .2328427-.0159858.3247549-.0479579.0919123-.0319721.1899505-.090243.2941177-.1748144z" fill="#369"/><path d="M17.4601716 59.427599c.2655242.1753309.4799828.4089301.6433823.7008045.1633995.2918744.2450981.6492346.2450981 1.0720915 0 .371289-.0730181.694615-.2190564.9699877-.1460383.2753726-.3395617.500721-.580576.676052-.2450993.1753309-.5233849.3057957-.8348652.3913985-.3114803.0856027-.6377638.1284034-.9788603.1284034h-2.1905637V63.125c.0653598-.0020627.1470583-.0082508.245098-.0185644.0980397-.0103135.1633986-.0226897.1960785-.0371287.0735297-.0309407.1245913-.0727101.1531862-.1253094.028595-.0525992.0428922-.1160268.0428922-.1902846v-3.1126238c0-.0701324-.013276-.1335599-.0398284-.1902846-.0265525-.0567248-.0786353-.1026195-.15625-.1376857-.0776148-.0350662-.1598239-.0587871-.2466299-.0711634-.086806-.0123763-.1536967-.020627-.2006741-.0247524v-.2413367h2.3131128c.2471417 0 .5116407.0319717.7935049.0959159.2818641.0639442.5535118.1825486.814951.3558168zm-.625 3.1466584c.1000822-.1650173.1731002-.3614881.2190563-.5894183.0459562-.2279302.0689339-.4904069.0689339-.7874381 0-.290843-.030637-.5558982-.0919118-.7951733-.0612748-.2392751-.1511432-.443481-.2696078-.6126237-.1184647-.1691428-.2660327-.3001233-.4427084-.3929456-.1766757-.0928222-.3773477-.1392327-.602022-.1392327-.0714873 0-.1526752.0015471-.2435662.0046411-.090891.0030941-.1588029.0056725-.2037378.0077352v3.332302c0 .0742578.0097017.139748.0291054.1964727.0194037.0567247.0525938.1067449.0995711.1500619.0469774.0433171.104677.0768357.1731005.1005569.0684235.0237213.1577813.0355817.268076.0355817.2308018 0 .4289207-.0433164.5943627-.1299505.165442-.0866341.2992234-.2134892.4013481-.3805693zm5.7965686-2.4783416h-.2328431c-.0592324-.16708-.1613555-.3362202-.3063726-.5074257-.1450171-.1712055-.2890107-.2722771-.4319853-.3032178-.0612748-.014439-.1465476-.0232055-.2558211-.0262995-.1092734-.0030941-.1996524-.0046411-.2711397-.0046411h-.6311274v1.6955445h.4473039c.1123372 0 .2144603-.0134074.3063726-.0402227.0919122-.0268154.1756532-.0783825.2512254-.154703.0469774-.0474425.0944647-.1309813.1424633-.2506188.0479986-.1196376.0791461-.2238032.0934436-.3125h.2328431v1.8316832h-.2328431c-.012255-.0866341-.0434025-.1954408-.0934436-.3264233-.0500411-.1309825-.0975284-.221225-.1424633-.2707302-.0674023-.0742578-.1470583-.1253093-.2389705-.153156-.0919123-.0278466-.1981204-.0417698-.3186275-.0417698h-.4473039v1.2654703c0 .1320139.0097017.2366952.0291054.3140471.0194037.0773518.0556574.1366541.1087622.1779084.0510624.0391916.1210167.0649752.2098652.0773515.0888485.0123763.2098645.0185643.3630515.0185643.0714873 0 .1572707-.0010313.2573529-.003094.1000822-.0020627.1879082-.0082508.2634804-.0185644.0857848-.0103136.1659515-.0257837.2405025-.0464109.074551-.0206271.1302081-.0505361.166973-.0897277.0980397-.1010731.2083327-.2552589.3308824-.4625619.1225496-.207303.2032269-.3625201.2420343-.4656559h.2236519l-.0827205 1.3675742h-4.0778187V63.125c.0571899-.0041254.1348035-.0123762.2328432-.0247525.0980397-.0123763.1674834-.0268151.2083333-.0433168.0776148-.0330035.1296976-.0747729.15625-.1253094.0265524-.0505366.0398284-.1149955.0398284-.1933787v-3.0971535c0-.0742578-.0112335-.1356227-.0337009-.1840965-.0224675-.0484739-.0765928-.0923059-.1623775-.1314976-.0531048-.0247525-.1276547-.0474421-.223652-.0680693-.0959972-.0206271-.1685046-.0340346-.2175245-.0402227v-.2413367h3.8541667v1.1200495zm5.3676471-.8725247c-.0674023.0061881-.1317399.0185643-.1930148.0371287-.0612748.0185645-.1245911.0474421-.1899509.0866337-.0878273.0515679-.1557392.1067447-.2037378.1655321-.0479986.0587875-.0954859.1397479-.1424632.2428837-.0633173.1423275-.1521645.350143-.2665441.623453-.1143797.2733099-.2450973.5842598-.3921569.9328589-.1307196.3135329-.2721602.6569701-.424326 1.0303218-.1521658.3733517-.2976913.7312276-.4365809 1.0736386h-.6158088c-.2859491-.7075118-.5770001-1.4263578-.8731617-2.1565594-.2961617-.7302017-.5044929-1.2376224-.625-1.5222772-.0469774-.1031359-.0924222-.1810023-.1363358-.2336015-.0439136-.0525993-.113868-.1067448-.2098652-.1624382-.0694448-.0391916-.1307187-.0665222-.1838236-.0819925-.0531048-.0154704-.1235698-.0293935-.211397-.0417698v-.2413367h2.3560049v.2351486c-.2205893.0268153-.3701998.0551772-.4488358.0850866-.078636.0299094-.1179534.0675534-.1179534.1129332 0 .0226898.0035743.0469264.010723.0727103.0071487.025784.0178717.060334.0321691.103651.0653598.1815191.1838227.4780302.3553922.8895421.1715695.411512.4258561 1.0390841.7628676 1.8827352.2062919-.5136165.3778588-.9478118.5147059-1.302599.1368471-.3547873.2573524-.6683155.3615196-.9405941.0510624-.1320139.0934435-.2552593.1271446-.3697401.0337012-.1144808.0505515-.2005979.0505515-.258354 0-.0660069-.0469767-.1211837-.1409314-.1655321-.0939547-.0443484-.2675641-.0768357-.5208333-.0974629v-.2475248h1.7616422v.2475248zm3.9399509.8725247h-.2328431c-.0592323-.16708-.1613555-.3362202-.3063726-.5074257-.145017-.1712055-.2890107-.2722771-.4319852-.3032178-.0612749-.014439-.1465477-.0232055-.2558211-.0262995-.1092734-.0030941-.1996524-.0046411-.2711397-.0046411h-.6311275v1.6955445h.4473039c.1123372 0 .2144604-.0134074.3063726-.0402227.0919122-.0268154.1756532-.0783825.2512255-.154703.0469773-.0474425.0944646-.1309813.1424632-.2506188.0479986-.1196376.0791462-.2238032.0934436-.3125h.2328432v1.8316832h-.2328432c-.0122549-.0866341-.0434025-.1954408-.0934436-.3264233-.0500411-.1309825-.0975284-.221225-.1424632-.2707302-.0674023-.0742578-.1470584-.1253093-.2389706-.153156-.0919122-.0278466-.1981203-.0417698-.3186275-.0417698h-.4473039v1.2654703c0 .1320139.0097017.2366952.0291054.3140471.0194037.0773518.0556574.1366541.1087623.1779084.0510623.0391916.1210167.0649752.2098652.0773515.0888484.0123763.2098644.0185643.3630514.0185643.0714873 0 .1572708-.0010313.257353-.003094.1000822-.0020627.1879081-.0082508.2634804-.0185644.0857847-.0103136.1659514-.0257837.2405024-.0464109.074551-.0206271.1302082-.0505361.1669731-.0897277.0980397-.1010731.2083327-.2552589.3308823-.4625619.1225496-.207303.2032269-.3625201.2420343-.4656559h.223652l-.0827206 1.3675742h-4.0778186V63.125c.0571898-.0041254.1348034-.0123762.2328431-.0247525.0980397-.0123763.1674835-.0268151.2083333-.0433168.0776148-.0330035.1296976-.0747729.15625-.1253094.0265525-.0505366.0398285-.1149955.0398285-.1933787v-3.0971535c0-.0742578-.0112336-.1356227-.033701-.1840965-.0224674-.0484739-.0765927-.0923059-.1623775-.1314976-.0531048-.0247525-.1276547-.0474421-.2236519-.0680693-.0959972-.0206271-.1685047-.0340346-.2175245-.0402227v-.2413367h3.8541666v1.1200495zm4.7610294 1.8626238l-.0857843 1.407797h-4.0042892V63.125c.0714873-.0061881.1552283-.0159859.2512255-.0293936.0959972-.0134076.1593136-.0262994.189951-.0386757.0735298-.028878.1245913-.0691004.1531863-.1206683.0285949-.0515679.0428921-.1175739.0428921-.1980198v-3.0971535c0-.0742578-.0112335-.1356227-.033701-.1840965-.0224674-.0484739-.0765927-.0923059-.1623774-.1314976-.0633173-.028878-.1393991-.0520832-.2282476-.0696163-.0888484-.0175331-.159824-.0304249-.2129289-.0386757v-.2413367h2.3866422v.2413367c-.0653598.0061881-.1424628.0149545-.2313113.0262995-.0888485.0113449-.1659515.0273307-.2313113.0479579-.0796572.0268153-.1327613.0685847-.1593137.1253094-.0265524.0567247-.0398284.1211836-.0398284.1933787v2.8867574c0 .1361393.0091911.243399.0275735.3217822.0183824.0783832.0541255.1361384.1072304.1732673.0531048.0391917.1271441.0644596.2221201.0758045.094976.0113449.2262042.0170173.3936887.0170173.1633995 0 .322201-.0097977.4764093-.0293935.1542083-.0195958.2650119-.0623966.3324142-.1284035.1041672-.1051985.2108859-.2531962.3201594-.4439975.1092734-.1908013.1965887-.3656139.2619485-.5244431h.2236519zm4.2279412-2.4938119c.2144619.1980208.3844969.4372923.5101103.7178218.1256134.2805295.1884191.6002457.1884191.9591584 0 .3197211-.053104.6239672-.1593137.9127475-.1062097.2887804-.2593944.537334-.4595588.7456684-.2103769.2165852-.4575149.3852098-.7414216.5058787-.2839066.1206689-.6219343.1810025-1.0140931.1810025-.3165866 0-.6158074-.0525985-.8976716-.1577971-.2818641-.1051985-.5300234-.2578373-.7444853-.4579208-.2124193-.195958-.3809226-.4341982-.5055147-.7147277-.1245921-.2805294-.1868872-.5930263-.1868872-.9375 0-.3589127.0607632-.6843013.1822916-.9761757s.2884998-.5419751.5009191-.7503094c.2103769-.204209.460068-.3614888.7490809-.4718441.2890129-.1103553.5969142-.1655322.9237133-.1655322.3247565 0 .6295941.0536298.914522.1608911.2849279.1072613.5315553.256806.7398897.4486386zm-.7873774 3.1404703c.0919122-.1877072.1582923-.4001638.1991421-.6373762.0408499-.2372124.0612745-.5053616.0612745-.8044555 0-.2537141-.0178715-.5007207-.0536152-.7410272-.0357436-.2403065-.0965069-.4543101-.1822916-.6420173-.0878273-.1877072-.2042477-.3382833-.3492647-.4517327-.1450171-.1134494-.3257751-.1701733-.5422794-.1701733-.3696914 0-.6505301.1768753-.8425246.5306312-.1919944.3537559-.2879901.8534415-.2879901 1.4990718 0 .2743413.0209352.5332084.0628063.7766089.0418711.2434006.1077406.4558572.1976103.6373763.0919122.1835817.2083326.3264227.3492647.4285272.1409321.1021045.3145415.1531559.5208334.1531559.2022069 0 .3758162-.0515671.5208333-.1547029.1450171-.1031359.2604162-.2444298.346201-.4238862zm5.9895833-2.5309406c0 .247526-.050551.4604983-.1516544.6389233-.1011035.178425-.2405016.3233286-.4181985.4347153-.1838245.1155122-.3936876.1990509-.6295956.2506189-.2359081.0515679-.5009177.0773514-.7950368.0773514h-.3553921v1.2345297c0 .0742578.0137866.1387168.0413602.1933788.0275737.0546619.0801671.098494.1577819.1314975.0408499.0165017.1072299.0340345.1991422.052599.0919122.0185644.1695258.0309406.2328431.0371287v.2413366h-2.3560049V63.125c.0592323-.0061881.1378672-.0149546.2359069-.0262995.0980397-.0113449.1664622-.0252681.2052696-.0417698.0796572-.0330035.1322507-.0732258.1577818-.1206683.0255312-.0474425.0382966-.1134484.0382966-.1980198v-3.0971535c0-.0721951-.0122548-.1345913-.0367647-.1871906-.0245099-.0525993-.077614-.0964313-.1593137-.1314975-.0571899-.0247526-.1332716-.0469265-.2282476-.0665223-.0949759-.0195958-.1659515-.0324876-.2129289-.0386757v-.2413367h2.3988971c.5616858 0 .981412.0902425 1.2591911.2707302.2777792.1804877.4166667.4563719.4166667.8276609zm-1.1948529.1577971c0-.3300347-.0658695-.5749786-.1976103-.7348392-.1317409-.1598605-.3661135-.2397896-.703125-.2397896h-.2542892v1.9275991h.1286764c.334969 0 .5897663-.0778664.7643995-.2336015.1746333-.1557351.2619486-.3955223.2619486-.7193688zm7.4938725 3.1342821h-2.3560049V63.125c.0694448-.0061881.1547176-.0165016.2558211-.0309406.1011034-.014439.1700366-.0299092.2068015-.0464109.0755722-.0309407.1296975-.0732258.1623774-.1268564.0326799-.0536307.0490196-.1216993.0490196-.2042079v-3.279703l-1.495098 3.8582921h-.3860294c-.0183825-.0680697-.0638273-.2031756-.1363358-.4053218s-.1312294-.3640671-.1761642-.4857673l-1.0998775-3.016708v2.6701733c0 .2557769.0168503.450185.0505515.5832302.0337011.1330452.088337.2305071.1639093.2923886.0510623.0433171.1424626.0845708.2742034.1237624.1317409.0391916.2241623.0618812.2772672.0680693v.2413366h-1.8688726V63.125c.0510624-.0061881.1342928-.0201113.2496937-.0417698.1154009-.0216585.2098648-.0593025.2833946-.1129332.0816997-.057756.1368462-.1552179.1654412-.2923886.0285949-.1371706.0428921-.3326101.0428921-.5863242v-2.1751238c0-.1320139-.0163397-.2418519-.0490196-.3295173-.0326799-.0876655-.081699-.1572811-.1470588-.208849-.0816998-.0639443-.1654408-.105198-.2512255-.1237624-.0857848-.0185645-.1725894-.0309406-.2604167-.0371287v-.2413367h2.0006128L49.4577206 61.875l.903799-2.3545792c.0306374-.0866341.0602531-.1897684.088848-.3094059.028595-.1196376.0439134-.1980197.0459559-.2351486h1.9270834v.2413367c-.0653598.0041254-.1337824.0123761-.2052696.0247524-.0714873.0123763-.1399098.0288778-.2052697.049505-.0796572.0268153-.1322506.0691004-.1577818.1268564-.0255312.0577561-.0382966.1216994-.0382966.1918317v3.1095297c0 .0742578.0127654.1366541.0382966.1871906.0255312.0505366.0781246.0943686.1577818.1314975.0408499.0185645.1077406.0360973.2006741.052599.0929334.0165018.1649303.0278466.2159926.0340347v.2413366zm4.3014706-3.2704208h-.2328431c-.0592324-.16708-.1613555-.3362202-.3063726-.5074257-.145017-.1712055-.2890107-.2722771-.4319853-.3032178-.0612748-.014439-.1465476-.0232055-.2558211-.0262995-.1092734-.0030941-.1996524-.0046411-.2711397-.0046411h-.6311274v1.6955445h.4473039c.1123372 0 .2144603-.0134074.3063726-.0402227.0919122-.0268154.1756532-.0783825.2512254-.154703.0469774-.0474425.0944647-.1309813.1424633-.2506188.0479986-.1196376.0791462-.2238032.0934436-.3125h.2328431v1.8316832h-.2328431c-.012255-.0866341-.0434025-.1954408-.0934436-.3264233-.0500411-.1309825-.0975284-.221225-.1424633-.2707302-.0674023-.0742578-.1470583-.1253093-.2389705-.153156-.0919123-.0278466-.1981204-.0417698-.3186275-.0417698h-.4473039v1.2654703c0 .1320139.0097017.2366952.0291054.3140471.0194037.0773518.0556574.1366541.1087622.1779084.0510624.0391916.1210167.0649752.2098652.0773515.0888485.0123763.2098645.0185643.3630515.0185643.0714873 0 .1572707-.0010313.2573529-.003094.1000822-.0020627.1879082-.0082508.2634804-.0185644.0857848-.0103136.1659515-.0257837.2405025-.0464109.074551-.0206271.1302081-.0505361.166973-.0897277.0980397-.1010731.2083327-.2552589.3308824-.4625619.1225496-.207303.2032269-.3625201.2420343-.4656559h.223652l-.0827206 1.3675742h-4.0778187V63.125c.0571899-.0041254.1348035-.0123762.2328432-.0247525.0980397-.0123763.1674834-.0268151.2083333-.0433168.0776148-.0330035.1296976-.0747729.15625-.1253094.0265524-.0505366.0398284-.1149955.0398284-.1933787v-3.0971535c0-.0742578-.0112335-.1356227-.0337009-.1840965-.0224675-.0484739-.0765928-.0923059-.1623775-.1314976-.0531048-.0247525-.1276547-.0474421-.223652-.0680693-.0959972-.0206271-.1685046-.0340346-.2175245-.0402227v-.2413367h3.8541667v1.1200495zm5.6648284-.8787128c-.0571898.0061881-.1388883.0175329-.245098.0340346-.1062097.0165018-.2022055.0567241-.2879902.1206683-.0755723.0556934-.1291869.1510926-.1608456.2862005-.0316586.135108-.0474877.3336415-.0474877.5956065v3.1373762h-.5453432l-2.7083333-3.3941832v2.0606436c0 .2557769.0168503.450185.0505515.5832302.0337011.1330452.088337.2305071.1639093.2923886.0551473.0453798.1429732.0856022.2634804.1206683.1205071.0350662.2165029.0587871.2879902.0711634v.2413366h-1.8688726V63.125c.0796573-.0061881.1710575-.0211426.2742034-.0448639.103146-.0237212.1894401-.0603339.2588849-.1098391.0796572-.0598188.1342931-.1500612.1639093-.2707302.0296161-.1206689.044424-.3233278.044424-.6079826v-2.079208c0-.1031358-.0158291-.2005977-.0474878-.2923886-.0316586-.0917909-.0811883-.1706886-.1485906-.2366955-.0714873-.0701324-.1536965-.1253092-.2466299-.1655322-.0929335-.040223-.198631-.0716789-.3170956-.0943688v-.2475248h1.6360294l2.377451 2.9702971v-1.6615099c0-.2640278-.017361-.4604986-.0520834-.5894184-.0347224-.1289197-.0898689-.2243189-.1654412-.2862004-.0592323-.0474425-.1470582-.0881806-.2634803-.1222154-.1164222-.0340348-.2103755-.05724-.2818628-.0696163v-.2413367h1.8658088v.2413367zm4.3137255 1.0148515h-.2359068c-.0633173-.1877073-.1649299-.3888191-.3048407-.6033416-.1399109-.2145226-.2690967-.3300329-.3875613-.3465347-.0653598-.0082508-.1460371-.0154702-.2420343-.0216584-.0959972-.0061881-.178717-.0092822-.2481618-.0092822h-.1439951v3.4436881c0 .0742578.013276.1397481.0398285.1964728.0265524.0567247.0786352.1015881.15625.1345916.0469773.0185644.1199954.0376443.2190563.0572401.099061.0195958.1833126.0335189.2527574.0417698v.2413366h-2.4234069V63.125c.0592323-.0061881.1424627-.0149546.2496936-.0262995.107231-.0113449.180249-.0252681.2190564-.0417698.0796573-.0330035.1327613-.0773512.1593137-.1330446.0265525-.0556933.0398285-.1216992.0398285-.1980198v-3.4746287h-.1439951c-.0694448 0-.1521646.0030941-.2481618.0092822-.0959972.0061882-.1766745.0134076-.2420343.0216584-.1184646.0165018-.2476504.1320121-.3875613.3465347-.1399108.2145225-.2415234.4156343-.3048407.6033416h-.2359068v-1.2561882h4.2126225v1.2561882z" fill="#418787"/><ellipse stroke="#7FBABA" stroke-width="3" cx="40" cy="40" rx="38.4313725" ry="38.4158416"/><ellipse stroke="#7FBABA" stroke-width="3" cx="40" cy="40" rx="38.4313725" ry="38.4158416"/></g></svg>