<?xml version="1.0" encoding="UTF-8"?>
<svg width="82px" height="45px" viewBox="0 0 82 45" version="1.1" xmlns="http://www.w3.org/2000/svg" xmlns:xlink="http://www.w3.org/1999/xlink">
    <!-- Generator: Sketch 50.2 (55047) - http://www.bohemiancoding.com/sketch -->
    <title>Group</title>
    <desc>Created with Sketch.</desc>
    <defs></defs>
    <g id="Page-1" stroke="none" stroke-width="1" fill="none" fill-rule="evenodd">
        <g id="Group" transform="translate(-1.000000, 0.000000)">
            <text id="D" font-family="Georgia" font-size="28" font-weight="normal" fill="#333333">
                <tspan x="0" y="43.4">D</tspan>
            </text>
            <text id="D" font-family="Georgia" font-size="28" font-weight="normal" fill="#333333">
                <tspan x="31.2" y="43.4">D</tspan>
            </text>
            <text id="I" font-family="Georgia" font-size="28" font-weight="normal" fill="#333333">
                <tspan x="19.8" y="43.4">I</tspan>
            </text>
            <path d="M4.4,9.73416425 C22.3782509,-1.67966155 42.0607871,-3.05599856 63.4476086,5.60515323 C71.2700678,8.7730623 82.0452426,17.8854182 81.9357415,17.9322332 C81.8262405,17.9790481 62.6932829,17.3179447 62.6553508,17.391473 C62.6417374,17.4178614 51.5820518,8.1061519 40.8750677,6.38945711 C29.0911295,4.50008985 16.9327736,5.61499223 4.4,9.73416425 Z" id="aqua-swoosh" fill-opacity="0.5" fill="#99CCCC"></path>
            <path d="M78.3759304,8.79894218 C59.6452854,-1.33298073 39.9146864,-1.33298073 19.1841335,8.79894218 C11.6017116,12.5048016 1.48843039,22.3465984 1.60093039,22.3856609 C1.71343039,22.4247234 20.7536648,20.4305828 20.7966335,20.5012859 C20.8120545,20.5266605 31.1952473,10.4661491 41.7563991,8.00675468 C53.3798366,5.29998385 65.5863471,5.56404635 78.3759304,8.79894218 Z" id="blue-swoosh" fill-opacity="0.6" fill="#336699"></path>
            <path d="M62.2539696,44.4644531 C59.5018863,42.2066406 58.1258446,38.6398438 58.1258446,33.7640625 C58.1258446,28.8882812 59.5018863,25.3386719 62.2539696,23.1152344 L61.8578758,22.8 C57.8284488,26.8173177 55.8777977,30.4947266 56.0059227,33.8322266 C56.1340477,37.1697266 58.0846988,40.8238281 61.8578758,44.7945313 L62.2539696,44.4644531 Z" id="left" fill="#99CCCD"></path>
            <text id="it" font-family="Georgia" font-size="22" font-weight="normal" fill="#336699">
                <tspan x="62.4" y="42.4">it</tspan>
            </text>
            <path d="M82.6539696,44.4644531 C79.9018863,42.2066406 78.5258446,38.6398438 78.5258446,33.7640625 C78.5258446,28.8882812 79.9018863,25.3386719 82.6539696,23.1152344 L82.2578758,22.8 C78.2284488,26.8173177 76.2777977,30.4947266 76.4059227,33.8322266 C76.5340477,37.1697266 78.4846988,40.8238281 82.2578758,44.7945313 L82.6539696,44.4644531 Z" id="left" fill="#99CCCD" transform="translate(79.526985, 33.797266) rotate(180.000000) translate(-79.526985, -33.797266) "></path>
        </g>
    </g>
</svg>