<svg width="1920" height="1080" xmlns="http://www.w3.org/2000/svg" xmlns:xlink="http://www.w3.org/1999/xlink"><defs><linearGradient x1="50%" y1="3.346%" x2="50%" y2="100%" id="a"><stop stop-color="#00C3BA" offset="0%"/><stop stop-color="#0066A2" offset="100%"/></linearGradient><path id="b" d="M0 0h1920v1080H0z"/><radialGradient cx="41.604%" cy="-5.62%" fx="41.604%" fy="-5.62%" r="42.557%" gradientTransform="matrix(0 1 -.68002 0 .378 -.472)" id="c"><stop stop-color="#FFF" stop-opacity=".74" offset="0%"/><stop stop-color="#FFF" stop-opacity=".012" offset="0%"/><stop stop-color="#FFF" stop-opacity=".713" offset="100%"/></radialGradient><circle id="e" cx="968.5" cy="539.5" r="262.5"/><filter x="-11.3%" y="-11%" width="122.7%" height="122.7%" filterUnits="objectBoundingBox" id="d"><feMorphology radius="4" operator="dilate" in="SourceAlpha" result="shadowSpreadOuter1"/><feOffset dy="2" in="shadowSpreadOuter1" result="shadowOffsetOuter1"/><feMorphology radius="4" in="SourceAlpha" result="shadowInner"/><feOffset dy="2" in="shadowInner" result="shadowInner"/><feComposite in="shadowOffsetOuter1" in2="shadowInner" operator="out" result="shadowOffsetOuter1"/><feGaussianBlur stdDeviation="17.5" in="shadowOffsetOuter1" result="shadowBlurOuter1"/><feColorMatrix values="0 0 0 0 0 0 0 0 0 0 0 0 0 0 0 0 0 0 0.5 0" in="shadowBlurOuter1"/></filter><radialGradient cx="42.747%" cy="-7.272%" fx="42.747%" fy="-7.272%" r="31.458%" gradientTransform="matrix(0 1 -2.12503 0 .273 -.5)" id="f"><stop stop-color="#FFF" offset="0%"/><stop stop-color="#FFF" stop-opacity="0" offset="100%"/></radialGradient><path d="M790 375.391c87.182-57.914 182.63-64.897 286.341-20.95 37.934 16.073 90.186 62.31 89.655 62.547-.531.237-93.313-3.117-93.497-2.744-.066.134-53.698-47.113-105.62-55.824-57.144-9.587-116.104-3.93-176.879 16.971z" id="h"/><filter x="-4.7%" y="-17%" width="109.3%" height="138.5%" filterUnits="objectBoundingBox" id="g"><feOffset dy="2" in="SourceAlpha" result="shadowOffsetOuter1"/><feGaussianBlur stdDeviation="5.5" in="shadowOffsetOuter1" result="shadowBlurOuter1"/><feComposite in="shadowBlurOuter1" in2="SourceAlpha" operator="out" result="shadowBlurOuter1"/><feColorMatrix values="0 0 0 0 0 0 0 0 0 0 0 0 0 0 0 0 0 0 0.5 0" in="shadowBlurOuter1"/></filter><path d="M865 495.587c0 8.334-1.497 15.562-4.49 21.686-2.994 6.123-6.89 11.142-11.688 15.055-4.842 3.914-10.278 6.838-16.31 8.771-6.03 1.934-12.259 2.901-18.686 2.901H775v-4.903c1.277 0 2.938-.127 4.985-.38 2.047-.254 3.4-.541 4.061-.864 1.32-.598 2.278-1.484 2.873-2.658.594-1.175.891-2.59.891-4.248v-70.72c0-1.566-.253-2.97-.76-4.213-.506-1.243-1.507-2.233-3.004-2.97a17.447 17.447 0 0 0-4.424-1.519c-1.585-.322-2.95-.53-4.094-.622V446h40.94c5.634 0 11.18.91 16.64 2.728 5.458 1.819 10.212 4.27 14.262 7.355 5.502 4.098 9.816 9.462 12.942 16.092 3.125 6.63 4.688 14.434 4.688 23.412zm-16.178-.069c0 6.676-.627 12.558-1.881 17.645-1.255 5.088-3.247 9.566-5.976 13.433-2.597 3.684-5.987 6.561-10.169 8.633-4.182 2.072-9.068 3.108-14.659 3.108-4.842 0-8.43-.806-10.763-2.417-2.333-1.612-3.5-4.512-3.5-8.702V451.87c1.101-.046 2.785-.103 5.052-.172 2.267-.07 4.303-.104 6.108-.104 5.414 0 10.334 1.082 14.758 3.246 4.424 2.164 8.154 5.134 11.192 8.91 3.213 3.959 5.656 8.597 7.33 13.915 1.672 5.318 2.508 11.269 2.508 17.853zM1149 370.737c-61.969-16.49-121.113-17.837-177.431-4.039-51.172 12.538-101.481 63.823-101.556 63.693-.208-.36-92.463 9.805-93.008 9.606-.546-.199 48.456-50.37 85.195-69.26 100.445-51.65 196.045-51.65 286.8 0z" id="j"/><filter x="-4.7%" y="-7.3%" width="109.4%" height="116.5%" filterUnits="objectBoundingBox" id="i"><feOffset dy="2" in="SourceAlpha" result="shadowOffsetOuter1"/><feGaussianBlur stdDeviation="5.5" in="shadowOffsetOuter1" result="shadowBlurOuter1"/><feColorMatrix values="0 0 0 0 0 0 0 0 0 0 0 0 0 0 0 0 0 0 0.5 0" in="shadowBlurOuter1"/></filter><path d="M1017 495.587c0 8.334-1.497 15.562-4.49 21.686-2.994 6.123-6.89 11.142-11.688 15.055-4.842 3.914-10.278 6.838-16.31 8.771-6.03 1.934-12.259 2.901-18.686 2.901H927v-4.903c1.277 0 2.938-.127 4.985-.38 2.047-.254 3.4-.541 4.061-.864 1.32-.598 2.278-1.484 2.873-2.658.594-1.175.891-2.59.891-4.248v-70.72c0-1.566-.253-2.97-.76-4.213-.506-1.243-1.507-2.233-3.004-2.97a17.447 17.447 0 0 0-4.424-1.519c-1.585-.322-2.95-.53-4.094-.622V446h40.94c5.634 0 11.18.91 16.64 2.728 5.458 1.819 10.212 4.27 14.262 7.355 5.502 4.098 9.816 9.462 12.942 16.092 3.125 6.63 4.688 14.434 4.688 23.412zm-16.178-.069c0-6.584-.836-12.535-2.509-17.853-1.673-5.318-4.116-9.956-7.33-13.916-3.037-3.775-6.767-6.745-11.191-8.909-4.424-2.164-9.344-3.246-14.758-3.246-1.805 0-3.841.035-6.108.104-2.267.069-3.95.126-5.051.172v75.348c0 4.19 1.166 7.09 3.5 8.702 2.332 1.611 5.92 2.417 10.762 2.417 5.59 0 10.477-1.036 14.659-3.108s7.572-4.95 10.169-8.633c2.73-3.867 4.721-8.345 5.976-13.433 1.254-5.087 1.881-10.969 1.881-17.645z" id="l"/><filter x="-19.4%" y="-15.8%" width="138.9%" height="135.7%" filterUnits="objectBoundingBox" id="k"><feOffset dy="2" in="SourceAlpha" result="shadowOffsetOuter1"/><feGaussianBlur stdDeviation="5.5" in="shadowOffsetOuter1" result="shadowBlurOuter1"/><feColorMatrix values="0 0 0 0 0 0 0 0 0 0 0 0 0 0 0 0 0 0 0.5 0" in="shadowBlurOuter1"/></filter><path d="M914 544h-42v-4.903c1.183-.093 2.892-.23 5.127-.415 2.235-.184 3.812-.46 4.732-.829 1.446-.598 2.498-1.415 3.155-2.451.657-1.036.986-2.475.986-4.317V460.09c0-1.612-.241-2.958-.723-4.04-.482-1.082-1.621-1.992-3.418-2.728-1.314-.553-2.969-1.07-4.962-1.554-1.994-.484-3.626-.771-4.897-.864V446h42v4.903c-1.358.046-2.98.22-4.864.518-1.884.3-3.527.68-4.93 1.14-1.665.552-2.782 1.45-3.352 2.693-.57 1.244-.854 2.625-.854 4.144v70.928c0 1.519.318 2.866.953 4.04s1.72 2.106 3.254 2.797c.92.368 2.42.771 4.502 1.208 2.081.438 3.845.68 5.291.726V544z" id="n"/><filter x="-38.1%" y="-14.3%" width="176.2%" height="132.7%" filterUnits="objectBoundingBox" id="m"><feOffset dy="2" in="SourceAlpha" result="shadowOffsetOuter1"/><feGaussianBlur stdDeviation="5" in="shadowOffsetOuter1" result="shadowBlurOuter1"/><feColorMatrix values="0 0 0 0 0 0 0 0 0 0 0 0 0 0 0 0 0 0 0.5 0" in="shadowBlurOuter1"/></filter><path d="M1071 553.32c-13.202-11.498-19.802-29.66-19.802-54.49 0-24.827 6.6-42.903 19.802-54.225l-1.9-1.605c-19.329 20.457-28.686 39.183-28.072 56.178.615 16.995 9.972 35.602 28.072 55.822l1.9-1.68z" id="p"/><filter x="-58.3%" y="-13.8%" width="216.7%" height="131.2%" filterUnits="objectBoundingBox" id="o"><feOffset dy="2" in="SourceAlpha" result="shadowOffsetOuter1"/><feGaussianBlur stdDeviation="5.5" in="shadowOffsetOuter1" result="shadowBlurOuter1"/><feColorMatrix values="0 0 0 0 0 0 0 0 0 0 0 0 0 0 0 0 0 0 0.5 0" in="shadowBlurOuter1"/></filter><path d="M1142 553.32c13.202-11.498 19.802-29.66 19.802-54.49 0-24.827-6.6-42.903-19.802-54.225l1.9-1.605c19.329 20.457 28.686 39.183 28.072 56.178-.615 16.995-9.972 35.602-28.072 55.822l-1.9-1.68z" id="r"/><filter x="-58.3%" y="-13.8%" width="216.7%" height="131.2%" filterUnits="objectBoundingBox" id="q"><feOffset dy="2" in="SourceAlpha" result="shadowOffsetOuter1"/><feGaussianBlur stdDeviation="5.5" in="shadowOffsetOuter1" result="shadowBlurOuter1"/><feColorMatrix values="0 0 0 0 0 0 0 0 0 0 0 0 0 0 0 0 0 0 0.5 0" in="shadowBlurOuter1"/></filter><path d="M1101.262 540.865h-24.66V537.3c.793-.072 1.612-.144 2.456-.216.845-.072 1.577-.216 2.197-.433.965-.324 1.68-.891 2.146-1.702.465-.81.698-1.864.698-3.16v-32.91c0-1.152-.25-2.206-.75-3.16a6.87 6.87 0 0 0-2.094-2.405c-.655-.432-1.602-.801-2.843-1.108-1.24-.306-2.378-.495-3.412-.567v-3.512l17.99-1.19.724.757v43.446c0 1.26.233 2.305.698 3.134.465.828 1.198 1.44 2.197 1.837.758.324 1.5.585 2.223.784.724.198 1.534.333 2.43.405v3.566zm-6.514-74.948c0 2.053-.646 3.845-1.939 5.376-1.292 1.531-2.886 2.297-4.782 2.297-1.757 0-3.282-.73-4.575-2.189-1.292-1.459-1.938-3.125-1.938-4.998 0-1.981.646-3.71 1.938-5.188 1.293-1.477 2.818-2.215 4.575-2.215 1.965 0 3.576.693 4.834 2.08 1.258 1.387 1.887 3 1.887 4.837zM1139 538.542a77.94 77.94 0 0 1-6.359 2.458c-1.999.667-4.446 1-7.34 1-4.274 0-7.281-1.126-9.022-3.377-1.74-2.252-2.61-5.43-2.61-9.538V492.99h-9.202V487.8h9.409v-16.589h9.408v16.59h14.63v5.187h-14.526v29.774c0 2.234.077 4.098.232 5.593.155 1.495.526 2.8 1.112 3.917.551 1.045 1.378 1.838 2.481 2.378s2.585.81 4.446.81c.862 0 2.128-.08 3.8-.243 1.671-.162 2.852-.369 3.541-.621v3.945z" id="t"/><filter x="-27.3%" y="-18.7%" width="154.7%" height="142.2%" filterUnits="objectBoundingBox" id="s"><feOffset dy="2" in="SourceAlpha" result="shadowOffsetOuter1"/><feGaussianBlur stdDeviation="5.5" in="shadowOffsetOuter1" result="shadowBlurOuter1"/><feColorMatrix values="0 0 0 0 0 0 0 0 0 0 0 0 0 0 0 0 0 0 0.5 0" in="shadowBlurOuter1"/></filter><path d="M887.74 572.936c1.81 1.212 3.273 2.827 4.387 4.845 1.114 2.018 1.671 4.488 1.671 7.412 0 2.566-.498 4.802-1.494 6.705-.995 1.904-2.315 3.462-3.958 4.674-1.672 1.212-3.57 2.114-5.693 2.706-2.124.592-4.349.888-6.675.888h-14.936v-1.669a23.289 23.289 0 0 0 1.671-.128c.669-.071 1.114-.157 1.337-.257.501-.214.85-.502 1.045-.866.195-.364.292-.802.292-1.316v-21.518c0-.485-.09-.924-.272-1.316-.18-.392-.536-.71-1.065-.952a6.117 6.117 0 0 0-1.682-.492 27.06 27.06 0 0 0-1.368-.17v-1.67h15.772c1.685 0 3.489.222 5.41.664 1.923.442 3.775 1.262 5.558 2.46zm-4.262 21.754c.683-1.141 1.18-2.5 1.494-4.075.313-1.576.47-3.39.47-5.444 0-2.01-.209-3.843-.627-5.497-.418-1.654-1.03-3.066-1.838-4.235-.808-1.17-1.814-2.075-3.019-2.717-1.205-.642-2.573-.963-4.105-.963-.487 0-1.04.011-1.66.032-.62.022-1.083.04-1.39.054v23.037c0 .514.066.966.199 1.359.132.392.358.738.679 1.037.32.3.713.531 1.18.695.466.164 1.076.246 1.828.246 1.574 0 2.924-.3 4.053-.898 1.128-.6 2.04-1.476 2.736-2.631zm29.56 5.476h-16.44v-1.669l1.66-.128c.731-.057 1.236-.143 1.515-.257.515-.214.867-.495 1.055-.845.188-.349.282-.795.282-1.337v-21.518c0-.485-.09-.913-.272-1.284-.18-.37-.536-.67-1.065-.898-.335-.143-.829-.289-1.483-.439a16.744 16.744 0 0 0-1.693-.31v-1.668h16.441v1.668c-.418.043-.94.104-1.567.182a8.502 8.502 0 0 0-1.587.332c-.543.185-.906.474-1.087.866a3.155 3.155 0 0 0-.271 1.337v21.497c0 .514.094.952.282 1.316.188.363.547.66 1.076.887.292.129.776.254 1.452.375.675.12 1.243.196 1.702.224v1.669zm35.765-12.342c-.432.042-.815.092-1.15.15a8.431 8.431 0 0 0-1.253.342c-.57.185-.947.491-1.128.92a3.423 3.423 0 0 0-.271 1.347v3.53c0 .712.007 1.286.02 1.721.014.435.035.973.063 1.615-1.393.856-3.45 1.662-6.173 2.417-2.723.756-5.226 1.134-7.51 1.134-2.145 0-4.157-.335-6.037-1.005a13.957 13.957 0 0 1-4.951-3.016c-1.421-1.327-2.539-2.974-3.353-4.942-.815-1.967-1.222-4.22-1.222-6.759 0-2.367.383-4.556 1.148-6.567.766-2.01 1.874-3.743 3.322-5.198 1.42-1.44 3.151-2.552 5.191-3.337 2.04-.784 4.3-1.176 6.78-1.176 1.685 0 3.244.21 4.679.631 1.434.42 2.618.873 3.551 1.358l1.295-1.176h1.818l.188 11.08h-1.838c-1.059-3.323-2.326-5.79-3.803-7.401-1.476-1.611-3.342-2.417-5.598-2.417-2.674 0-4.739 1.198-6.194 3.593-1.456 2.396-2.183 5.697-2.183 9.904 0 4.464.713 7.957 2.141 10.481 1.428 2.525 3.45 3.787 6.069 3.787 1.225 0 2.315-.19 3.269-.567.954-.378 1.696-.817 2.225-1.316v-6.16c0-.514-.09-.945-.272-1.294-.18-.35-.543-.653-1.086-.91-.418-.2-.94-.363-1.567-.491a24.79 24.79 0 0 0-1.567-.278v-1.669h15.397v1.669zm17.84 12.342h-16.44v-1.669l1.66-.128c.731-.057 1.236-.143 1.515-.257.515-.214.867-.495 1.055-.845.188-.349.282-.795.282-1.337v-21.518c0-.485-.09-.913-.272-1.284-.18-.37-.536-.67-1.065-.898-.335-.143-.829-.289-1.484-.439a16.744 16.744 0 0 0-1.692-.31v-1.668h16.441v1.668c-.418.043-.94.104-1.567.182a8.502 8.502 0 0 0-1.587.332c-.543.185-.906.474-1.087.866a3.155 3.155 0 0 0-.271 1.337v21.497c0 .514.094.952.282 1.316.188.363.546.66 1.076.887.292.129.776.254 1.452.375.675.12 1.243.196 1.702.224v1.669zm30.312-21.669h-1.608c-.432-1.297-1.125-2.688-2.079-4.17-.954-1.484-1.835-2.282-2.643-2.397a27.437 27.437 0 0 0-1.65-.15 26.465 26.465 0 0 0-1.692-.063h-.982v23.807c0 .513.09.966.272 1.358.18.393.536.703 1.065.93.32.13.818.261 1.494.397.675.135 1.25.231 1.723.288v1.669h-16.524v-1.669l1.702-.181c.732-.079 1.23-.175 1.494-.29.543-.227.905-.534 1.086-.919.181-.385.272-.841.272-1.369v-24.021h-.982c-.473 0-1.037.021-1.692.064s-1.205.092-1.65.15c-.808.114-1.689.912-2.643 2.395-.954 1.483-1.647 2.874-2.079 4.171h-1.608v-8.684h28.724v8.684zm33.885 21.669h-16.149v-1.669c.752-.057 1.637-.196 2.653-.417 1.017-.22 1.525-.495 1.525-.823 0-.114-.01-.243-.031-.385a2.722 2.722 0 0 0-.178-.578l-2.527-6.289h-10.237c-.236.585-.497 1.27-.783 2.054-.286.784-.533 1.483-.742 2.096-.264.799-.42 1.376-.47 1.733a6.49 6.49 0 0 0-.073.748c0 .457.338.845 1.013 1.166.676.321 1.8.553 3.374.695v1.669h-12.158v-1.669c.46-.028.978-.103 1.556-.224.578-.121 1.034-.289 1.369-.503a5.346 5.346 0 0 0 1.452-1.262c.396-.5.727-1.09.992-1.775 1.615-4.008 3.234-8.022 4.857-12.043 1.622-4.022 3.415-8.456 5.38-13.305h4.177c2.73 6.874 4.868 12.307 6.414 16.3a476.591 476.591 0 0 0 3.948 9.925c.181.427.41.816.69 1.165.278.35.675.681 1.19.995.39.228.843.4 1.358.513.515.115.982.186 1.4.214v1.669zm-15.564-12.278l-4.303-10.995-4.241 10.995h8.544zm43.724 2.545l-.585 9.733h-27.304v-1.669a33.02 33.02 0 0 0 1.713-.203c.655-.093 1.087-.182 1.295-.267.502-.2.85-.478 1.045-.834.195-.357.292-.813.292-1.37v-21.411c0-.514-.076-.938-.23-1.273-.153-.335-.522-.638-1.107-.91-.431-.199-.95-.36-1.556-.48-.606-.122-1.09-.21-1.452-.268v-1.668h16.274v1.668c-.446.043-.972.104-1.577.182a9.02 9.02 0 0 0-1.578.332c-.543.185-.905.474-1.086.866a3.155 3.155 0 0 0-.271 1.337v19.957c0 .941.062 1.683.188 2.225.125.542.369.94.73 1.198.363.27.868.445 1.515.524.648.078 1.543.117 2.685.117 1.114 0 2.197-.067 3.248-.203 1.052-.135 1.807-.431 2.267-.888.71-.727 1.438-1.75 2.183-3.07.745-1.318 1.34-2.527 1.786-3.625H1059z" id="v"/><filter x="-3.5%" y="-15.6%" width="107.1%" height="143.8%" filterUnits="objectBoundingBox" id="u"><feOffset dy="2" in="SourceAlpha" result="shadowOffsetOuter1"/><feGaussianBlur stdDeviation="2" in="shadowOffsetOuter1" result="shadowBlurOuter1"/><feColorMatrix values="0 0 0 0 0 0 0 0 0 0 0 0 0 0 0 0 0 0 0.5 0" in="shadowBlurOuter1"/></filter><path d="M816.52 651.166H800V649.5l1.669-.128c.735-.057 1.242-.143 1.522-.257.518-.214.87-.495 1.06-.844.189-.35.283-.795.283-1.336V625.43c0-.485-.09-.913-.273-1.283-.182-.37-.538-.67-1.07-.898-.336-.142-.833-.288-1.49-.438a16.909 16.909 0 0 0-1.701-.31v-1.667h16.52v1.667c-.42.043-.944.103-1.574.182a8.584 8.584 0 0 0-1.595.331c-.546.185-.91.474-1.092.866a3.138 3.138 0 0 0-.273 1.336v21.483c0 .513.095.951.284 1.314.189.364.549.66 1.08.887.295.129.781.253 1.46.375.678.12 1.249.195 1.71.224v1.667zm36.988-28.665c-.392.043-.952.121-1.68.235a4.359 4.359 0 0 0-1.972.834c-.518.385-.886 1.044-1.103 1.977-.216.934-.325 2.305-.325 4.115v21.675h-3.736l-18.557-23.45v14.237c0 1.767.115 3.11.346 4.03.231.919.605 1.592 1.123 2.02.378.313.98.591 1.806.833.825.243 1.483.406 1.973.492v1.667h-12.805V649.5a12.905 12.905 0 0 0 1.879-.31c.706-.164 1.298-.417 1.773-.759.546-.413.92-1.037 1.123-1.87.203-.834.305-2.234.305-4.2v-14.365c0-.713-.109-1.386-.326-2.02a4.151 4.151 0 0 0-1.018-1.636 5.522 5.522 0 0 0-1.69-1.143 10.325 10.325 0 0 0-2.172-.652v-1.71h11.21l16.29 20.52v-11.478c0-1.824-.12-3.182-.358-4.072-.238-.891-.616-1.55-1.133-1.978-.406-.327-1.008-.609-1.806-.844-.797-.235-1.441-.395-1.93-.481v-1.667h12.783v1.667zm36.085 0c-.392.043-.952.121-1.68.235a4.359 4.359 0 0 0-1.973.834c-.517.385-.885 1.044-1.102 1.977-.217.934-.325 2.305-.325 4.115v21.675h-3.737l-18.556-23.45v14.237c0 1.767.115 3.11.346 4.03.231.919.605 1.592 1.123 2.02.378.313.98.591 1.805.833.826.243 1.484.406 1.974.492v1.667h-12.805V649.5a12.905 12.905 0 0 0 1.878-.31c.707-.164 1.298-.417 1.774-.759.546-.413.92-1.037 1.123-1.87.203-.834.305-2.234.305-4.2v-14.365c0-.713-.109-1.386-.326-2.02a4.151 4.151 0 0 0-1.018-1.636 5.522 5.522 0 0 0-1.69-1.143 10.325 10.325 0 0 0-2.172-.652v-1.71h11.21l16.289 20.52v-11.478c0-1.824-.119-3.182-.357-4.072-.238-.891-.616-1.55-1.133-1.978-.406-.327-1.008-.609-1.806-.844-.797-.235-1.441-.395-1.931-.481v-1.667h12.784v1.667zm29.389 1.71c1.469 1.368 2.634 3.021 3.495 4.96.86 1.937 1.29 4.146 1.29 6.626 0 2.209-.363 4.31-1.09 6.306-.729 1.995-1.778 3.712-3.15 5.152a15.398 15.398 0 0 1-5.08 3.494c-1.945.834-4.261 1.251-6.948 1.251-2.17 0-4.22-.363-6.15-1.09a15.152 15.152 0 0 1-5.102-3.164c-1.455-1.354-2.61-3-3.463-4.938-.854-1.938-1.28-4.097-1.28-6.477 0-2.48.416-4.727 1.248-6.744.833-2.016 1.977-3.744 3.432-5.184 1.442-1.41 3.153-2.497 5.133-3.26 1.98-.762 4.09-1.143 6.329-1.143 2.225 0 4.314.37 6.266 1.112 1.952.74 3.642 1.774 5.07 3.1zm-5.395 21.697c.63-1.297 1.084-2.765 1.364-4.404.28-1.638.42-3.491.42-5.557 0-1.753-.122-3.46-.367-5.12-.245-1.66-.662-3.139-1.25-4.436-.601-1.296-1.399-2.337-2.392-3.12-.994-.784-2.233-1.176-3.716-1.176-2.533 0-4.457 1.222-5.773 3.666-1.315 2.444-1.973 5.896-1.973 10.357 0 1.895.143 3.683.43 5.365.287 1.682.739 3.15 1.354 4.403.63 1.269 1.428 2.256 2.393 2.961.966.705 2.156 1.058 3.569 1.058 1.385 0 2.575-.356 3.569-1.069.993-.712 1.784-1.688 2.372-2.928zm45.3-23.364a6.596 6.596 0 0 0-1.323.256c-.42.129-.853.328-1.301.599-.602.356-1.067.737-1.396 1.143-.329.407-.654.966-.976 1.678a228.65 228.65 0 0 0-1.826 4.308c-.784 1.888-1.68 4.036-2.687 6.445a972.325 972.325 0 0 0-2.908 7.118c-1.042 2.58-2.04 5.052-2.991 7.417h-4.22c-1.959-4.888-3.953-9.854-5.982-14.899-2.03-5.045-3.457-8.55-4.282-10.517-.322-.712-.634-1.25-.935-1.614-.3-.363-.78-.737-1.437-1.122-.476-.27-.896-.46-1.26-.566a10.647 10.647 0 0 0-1.448-.289v-1.667h16.142v1.624c-1.511.186-2.536.381-3.075.588-.539.207-.808.467-.808.78 0 .157.024.325.073.503.05.178.123.416.22.716.449 1.254 1.26 3.302 2.436 6.145 1.175 2.843 2.918 7.18 5.227 13.008a723.925 723.925 0 0 0 3.526-9c.938-2.45 1.764-4.617 2.477-6.498.35-.912.64-1.763.872-2.554.23-.791.346-1.386.346-1.785 0-.456-.322-.838-.966-1.144-.643-.306-1.833-.53-3.568-.673v-1.71h12.07v1.71zm32.915 28.622h-16.227V649.5c.756-.057 1.645-.196 2.666-.417 1.022-.22 1.533-.495 1.533-.823 0-.114-.01-.242-.032-.385a2.71 2.71 0 0 0-.178-.577l-2.54-6.284h-10.286a62.3 62.3 0 0 0-.787 2.052c-.287.784-.536 1.482-.746 2.095-.265.798-.423 1.375-.472 1.731a6.45 6.45 0 0 0-.073.748c0 .456.34.845 1.018 1.165.679.32 1.809.552 3.39.695v1.667h-12.217V649.5c.462-.029.983-.103 1.564-.224.58-.122 1.039-.289 1.375-.503a5.364 5.364 0 0 0 1.459-1.261c.398-.499.73-1.09.997-1.774l4.88-12.035c1.63-4.019 3.432-8.45 5.406-13.296h4.198a2134.574 2134.574 0 0 1 6.444 16.289 474.746 474.746 0 0 0 3.968 9.918c.182.428.413.816.693 1.165.28.35.678.68 1.196.994a4.71 4.71 0 0 0 1.365.513c.517.114.986.185 1.406.214v1.667zm-15.639-12.27l-4.324-10.987-4.261 10.987h8.585zm43.6-9.384h-1.616c-.434-1.296-1.13-2.686-2.089-4.168-.958-1.482-1.844-2.28-2.655-2.394-.448-.057-1-.107-1.659-.15a26.74 26.74 0 0 0-1.7-.064h-.987v23.792c0 .513.091.965.273 1.357.182.392.539.702 1.07.93.323.128.823.26 1.502.395.678.136 1.256.232 1.732.289v1.667h-16.605V649.5l1.71-.182c.736-.078 1.236-.174 1.502-.288.546-.228.91-.535 1.091-.92.182-.384.273-.84.273-1.368v-24.005h-.986c-.476 0-1.043.022-1.7.064-.658.043-1.211.093-1.659.15-.812.114-1.697.912-2.655 2.394-.96 1.482-1.655 2.872-2.09 4.168H990.9v-8.678h28.864v8.678zm18.116 21.654h-16.52V649.5l1.668-.128c.735-.057 1.242-.143 1.522-.257.518-.214.871-.495 1.06-.844.19-.35.284-.795.284-1.336V625.43c0-.485-.091-.913-.273-1.283-.182-.37-.539-.67-1.07-.898-.337-.142-.833-.288-1.491-.438a16.91 16.91 0 0 0-1.7-.31v-1.667h16.52v1.667c-.42.043-.945.103-1.574.182a8.584 8.584 0 0 0-1.596.331c-.545.185-.91.474-1.091.866a3.138 3.138 0 0 0-.273 1.336v21.483c0 .513.094.951.283 1.314.19.364.55.66 1.081.887.294.129.78.253 1.46.375.678.12 1.248.195 1.71.224v1.667zm30.291-26.955c1.47 1.368 2.635 3.021 3.495 4.96.861 1.937 1.291 4.146 1.291 6.626 0 2.209-.363 4.31-1.091 6.306-.728 1.995-1.777 3.712-3.149 5.152a15.398 15.398 0 0 1-5.08 3.494c-1.945.834-4.261 1.251-6.948 1.251-2.17 0-4.22-.363-6.15-1.09a15.152 15.152 0 0 1-5.102-3.164c-1.455-1.354-2.61-3-3.463-4.938-.854-1.938-1.281-4.097-1.281-6.477 0-2.48.416-4.727 1.249-6.744.833-2.016 1.977-3.744 3.432-5.184 1.442-1.41 3.152-2.497 5.133-3.26 1.98-.762 4.09-1.143 6.329-1.143 2.225 0 4.314.37 6.266 1.112 1.952.74 3.642 1.774 5.07 3.1zm-5.395 21.697c.63-1.297 1.085-2.765 1.365-4.404.28-1.638.42-3.491.42-5.557 0-1.753-.123-3.46-.368-5.12-.245-1.66-.66-3.139-1.249-4.436-.601-1.296-1.4-2.337-2.393-3.12-.993-.784-2.232-1.176-3.715-1.176-2.533 0-4.458 1.222-5.773 3.666-1.316 2.444-1.973 5.896-1.973 10.357 0 1.895.143 3.683.43 5.365.287 1.682.738 3.15 1.354 4.403.63 1.269 1.427 2.256 2.393 2.961.966.705 2.155 1.058 3.569 1.058 1.385 0 2.575-.356 3.568-1.069.994-.712 1.785-1.688 2.372-2.928zm47.337-23.407c-.392.043-.952.121-1.68.235a4.359 4.359 0 0 0-1.973.834c-.517.385-.885 1.044-1.102 1.977-.217.934-.325 2.305-.325 4.115v21.675h-3.737l-18.556-23.45v14.237c0 1.767.115 3.11.346 4.03.23.919.605 1.592 1.123 2.02.378.313.98.591 1.805.833.826.243 1.484.406 1.974.492v1.667h-12.805V649.5a12.905 12.905 0 0 0 1.878-.31c.707-.164 1.298-.417 1.774-.759.546-.413.92-1.037 1.123-1.87.203-.834.305-2.234.305-4.2v-14.365c0-.713-.109-1.386-.326-2.02a4.151 4.151 0 0 0-1.018-1.636 5.522 5.522 0 0 0-1.69-1.143 10.325 10.325 0 0 0-2.172-.652v-1.71h11.21l16.289 20.52v-11.478c0-1.824-.12-3.182-.357-4.072-.238-.891-.616-1.55-1.134-1.978-.405-.327-1.007-.609-1.805-.844s-1.441-.395-1.931-.481v-1.667h12.784v1.667zM1156 651.166h-12.343c-.336-.384-.77-.887-1.302-1.507a46.637 46.637 0 0 1-1.364-1.656c-1.484 1.396-2.963 2.397-4.44 3.003a12.295 12.295 0 0 1-4.713.908c-2.617 0-4.761-.72-6.434-2.158-1.672-1.44-2.508-3.314-2.508-5.622 0-1.155.15-2.145.451-2.972.301-.826.787-1.653 1.46-2.48.643-.797 1.44-1.513 2.392-2.148a24.453 24.453 0 0 1 3.212-1.785c-1.26-1.624-2.138-3.006-2.634-4.146a8.694 8.694 0 0 1-.746-3.506c0-2.052.84-3.745 2.52-5.077 1.679-1.332 3.687-1.999 6.024-1.999 2.183 0 3.953.528 5.31 1.582 1.358 1.055 2.037 2.451 2.037 4.19 0 1.51-.406 2.86-1.217 4.05-.812 1.19-2.163 2.356-4.052 3.496 1.526 1.995 2.705 3.495 3.537 4.5a555.808 555.808 0 0 0 3.327 3.965c.882-1.326 1.543-2.544 1.984-3.656.441-1.111.661-2.045.661-2.8 0-.427-.31-.773-.934-1.037-.622-.263-1.5-.51-2.634-.737v-1.625h11.734v1.625c-1.273.114-2.214.27-2.823.47-.609.2-1.207.606-1.795 1.219-.252.256-.563.708-.934 1.357-.37.648-.724 1.272-1.06 1.87-.406.727-.84 1.49-1.302 2.288a24.587 24.587 0 0 1-1.679 2.5c1.288 1.54 2.348 2.69 3.18 3.453.833.762 1.515 1.286 2.047 1.57.602.329 1.364.589 2.288.781.924.193 1.84.317 2.75.374v1.71zm-16.269-25.052c0-1.255-.297-2.241-.892-2.961-.595-.72-1.368-1.08-2.32-1.08-.909 0-1.644.296-2.204.888-.56.591-.84 1.364-.84 2.319 0 .826.26 1.763.777 2.81.518 1.048 1.316 2.32 2.394 3.816 1.063-.755 1.843-1.635 2.34-2.64a7.026 7.026 0 0 0 .745-3.152zm.147 20.5c-1.175-1.44-2.543-3.115-4.104-5.024a301.328 301.328 0 0 1-4.355-5.451 6.535 6.535 0 0 0-1.606 2.597 9.412 9.412 0 0 0-.494 2.982c0 1.895.595 3.442 1.785 4.639s2.7 1.795 4.534 1.795c.854 0 1.595-.11 2.225-.331.63-.22 1.302-.623 2.015-1.208z" id="x"/><filter x="-2%" y="-15.6%" width="103.9%" height="143.8%" filterUnits="objectBoundingBox" id="w"><feOffset dy="2" in="SourceAlpha" result="shadowOffsetOuter1"/><feGaussianBlur stdDeviation="2" in="shadowOffsetOuter1" result="shadowBlurOuter1"/><feColorMatrix values="0 0 0 0 0 0 0 0 0 0 0 0 0 0 0 0 0 0 0.5 0" in="shadowBlurOuter1"/></filter><path d="M815.846 672.955c1.818 1.21 3.286 2.825 4.405 4.841 1.119 2.017 1.678 4.486 1.678 7.407 0 2.565-.5 4.799-1.5 6.701-1 1.903-2.324 3.46-3.974 4.671-1.678 1.211-3.583 2.113-5.716 2.704-2.132.592-4.366.887-6.7.887h-14.997V698.5a23.49 23.49 0 0 0 1.678-.128c.671-.072 1.118-.157 1.342-.257.504-.214.853-.502 1.049-.866.196-.363.293-.801.293-1.314V674.43c0-.485-.09-.923-.272-1.315-.182-.392-.538-.71-1.07-.951a6.163 6.163 0 0 0-1.688-.492 27.288 27.288 0 0 0-1.374-.171v-1.667h15.835c1.692 0 3.503.22 5.432.662 1.93.442 3.79 1.262 5.58 2.459zm-4.278 21.74c.685-1.141 1.185-2.498 1.5-4.073.314-1.575.471-3.388.471-5.44 0-2.01-.21-3.84-.629-5.494-.42-1.653-1.035-3.064-1.846-4.232-.81-1.169-1.82-2.074-3.03-2.715-1.21-.641-2.584-.962-4.122-.962-.489 0-1.045.01-1.667.032a128.1 128.1 0 0 0-1.395.053v23.022c0 .513.067.966.2 1.358.132.392.36.737.681 1.037.322.299.717.53 1.185.694.469.164 1.08.246 1.835.246 1.58 0 2.937-.3 4.07-.898 1.132-.598 2.048-1.475 2.747-2.629zm39.682-17.123h-1.594c-.405-1.155-1.104-2.323-2.097-3.506-.993-1.183-1.979-1.881-2.958-2.095-.419-.1-1.003-.16-1.75-.181a67.216 67.216 0 0 0-1.857-.032h-4.32v11.714h3.062c.769 0 1.468-.093 2.097-.278.63-.186 1.202-.542 1.72-1.07.321-.327.646-.904.975-1.73.329-.827.542-1.547.64-2.16h1.594v12.655h-1.594c-.084-.598-.297-1.35-.64-2.255-.342-.905-.668-1.528-.975-1.87a3.578 3.578 0 0 0-1.636-1.059c-.63-.192-1.356-.288-2.181-.288h-3.063v8.743c0 .912.067 1.635.2 2.17.132.534.38.943.744 1.228.35.271.829.45 1.437.535.608.085 1.437.128 2.485.128.49 0 1.077-.007 1.762-.021a15.792 15.792 0 0 0 1.804-.129 11.088 11.088 0 0 0 1.646-.32c.51-.143.892-.35 1.143-.62.672-.698 1.427-1.764 2.266-3.196.839-1.432 1.39-2.504 1.656-3.217h1.532l-.567 9.448h-27.916V698.5c.392-.029.923-.086 1.594-.171.671-.086 1.147-.185 1.426-.3.532-.227.888-.516 1.07-.865.182-.35.273-.794.273-1.336V674.43c0-.514-.077-.937-.231-1.272-.154-.335-.524-.638-1.112-.909-.363-.17-.874-.328-1.53-.47a19.05 19.05 0 0 0-1.49-.278v-1.667h26.385v7.738zm36.746-6.028a6.585 6.585 0 0 0-1.321.256c-.42.129-.853.328-1.3.599-.602.356-1.067.737-1.395 1.143-.329.407-.654.966-.976 1.678-.433.984-1.041 2.42-1.824 4.308a2487.46 2487.46 0 0 1-2.685 6.445 972.809 972.809 0 0 0-2.905 7.118c-1.041 2.58-2.038 5.052-2.989 7.417h-4.215c-1.958-4.888-3.95-9.854-5.978-14.899-2.027-5.045-3.453-8.55-4.278-10.517-.322-.712-.633-1.25-.934-1.614-.3-.363-.78-.737-1.436-1.122-.476-.27-.895-.46-1.259-.566a10.63 10.63 0 0 0-1.447-.289v-1.667h16.129v1.624c-1.51.186-2.535.381-3.073.588-.538.207-.807.467-.807.78 0 .157.024.325.073.503.049.178.122.416.22.716.448 1.254 1.259 3.302 2.433 6.145 1.175 2.843 2.916 7.18 5.223 13.008a724.292 724.292 0 0 0 3.523-9c.937-2.45 1.762-4.617 2.475-6.498.35-.912.64-1.763.87-2.554.231-.791.347-1.386.347-1.785 0-.456-.322-.838-.965-1.144-.643-.306-1.832-.53-3.566-.673v-1.71h12.06v1.71zm26.973 6.028h-1.594c-.406-1.155-1.105-2.323-2.098-3.506-.993-1.183-1.978-1.881-2.957-2.095-.42-.1-1.003-.16-1.751-.181a67.216 67.216 0 0 0-1.857-.032h-4.32v11.714h3.062c.769 0 1.468-.093 2.097-.278.63-.186 1.203-.542 1.72-1.07.322-.327.647-.904.975-1.73.329-.827.542-1.547.64-2.16h1.594v12.655h-1.594c-.084-.598-.297-1.35-.64-2.255-.342-.905-.667-1.528-.975-1.87a3.578 3.578 0 0 0-1.636-1.059c-.629-.192-1.356-.288-2.181-.288h-3.062v8.743c0 .912.066 1.635.199 2.17.133.534.381.943.745 1.228.35.271.828.45 1.436.535.609.085 1.437.128 2.486.128.49 0 1.076-.007 1.761-.021a15.792 15.792 0 0 0 1.804-.129 11.088 11.088 0 0 0 1.647-.32c.51-.143.891-.35 1.143-.62.67-.698 1.426-1.764 2.265-3.196.839-1.432 1.391-2.504 1.657-3.217h1.53l-.565 9.448h-27.916V698.5c.391-.029.922-.086 1.594-.171.67-.086 1.146-.185 1.426-.3.531-.227.888-.516 1.07-.865.181-.35.272-.794.272-1.336V674.43c0-.514-.077-.937-.23-1.272-.154-.335-.525-.638-1.112-.909-.364-.17-.874-.328-1.531-.47a19.05 19.05 0 0 0-1.49-.278v-1.667h26.386v7.738zm32.593 12.868l-.587 9.726h-27.413V698.5a33.3 33.3 0 0 0 1.72-.203c.657-.093 1.09-.182 1.3-.267.503-.2.853-.478 1.049-.834.195-.356.293-.812.293-1.368V674.43c0-.514-.077-.937-.23-1.272-.154-.335-.525-.638-1.112-.909-.433-.2-.954-.36-1.563-.48a37.988 37.988 0 0 0-1.457-.268v-1.667H935.9v1.667c-.447.043-.975.103-1.583.182a9.094 9.094 0 0 0-1.584.331c-.545.185-.909.474-1.09.866a3.14 3.14 0 0 0-.273 1.336v19.944c0 .94.063 1.681.189 2.223.126.541.37.94.734 1.197.363.27.87.445 1.52.524.65.078 1.549.117 2.696.117 1.118 0 2.205-.068 3.261-.203s1.814-.431 2.276-.887c.713-.727 1.443-1.75 2.191-3.068.749-1.318 1.346-2.525 1.794-3.623h1.53zm28.944-17.229c1.468 1.368 2.632 3.021 3.492 4.96.86 1.937 1.29 4.146 1.29 6.626 0 2.209-.364 4.31-1.091 6.306-.727 1.995-1.776 3.712-3.146 5.152a15.384 15.384 0 0 1-5.076 3.494c-1.943.834-4.257 1.251-6.942 1.251-2.167 0-4.216-.363-6.145-1.09a15.137 15.137 0 0 1-5.097-3.164c-1.454-1.354-2.608-3-3.46-4.938-.854-1.938-1.28-4.097-1.28-6.477 0-2.48.416-4.727 1.248-6.744.832-2.016 1.975-3.744 3.43-5.184 1.44-1.41 3.149-2.497 5.127-3.26 1.979-.762 4.087-1.143 6.324-1.143 2.223 0 4.31.37 6.26 1.112 1.951.74 3.64 1.774 5.066 3.1zm-5.39 21.697c.629-1.297 1.083-2.765 1.363-4.404.28-1.638.42-3.491.42-5.557 0-1.753-.123-3.46-.368-5.12-.245-1.66-.66-3.139-1.248-4.436-.601-1.296-1.398-2.337-2.39-3.12-.994-.784-2.231-1.176-3.713-1.176-2.531 0-4.454 1.222-5.768 3.666s-1.972 5.896-1.972 10.357c0 1.895.144 3.683.43 5.365.287 1.682.738 3.15 1.353 4.403.63 1.269 1.426 2.256 2.391 2.961.965.705 2.154 1.058 3.566 1.058 1.384 0 2.573-.356 3.565-1.069.993-.712 1.783-1.688 2.37-2.928zm41.003-17.486c0 1.71-.346 3.182-1.038 4.414a8.34 8.34 0 0 1-2.863 3.004c-1.258.798-2.695 1.375-4.31 1.731-1.615.356-3.43.535-5.443.535h-2.433v8.529c0 .513.095.958.283 1.336.19.377.55.68 1.08.908.28.114.735.235 1.364.363.629.129 1.16.214 1.594.257v1.667h-16.129V698.5c.405-.043.944-.103 1.615-.182.671-.078 1.14-.174 1.405-.288.546-.228.906-.506 1.08-.834.175-.328.263-.784.263-1.368V674.43c0-.5-.084-.93-.252-1.294-.168-.363-.532-.666-1.09-.908-.392-.171-.913-.324-1.563-.46a22.3 22.3 0 0 0-1.458-.267v-1.667h16.422c3.846 0 6.719.623 8.62 1.87 1.902 1.247 2.853 3.153 2.853 5.718zm-8.18 1.09c0-2.28-.45-3.972-1.352-5.076-.902-1.105-2.507-1.657-4.814-1.657h-1.74v13.317h.88c2.293 0 4.038-.538 5.233-1.614 1.196-1.076 1.793-2.732 1.793-4.97zm51.302 21.654h-16.129V698.5c.476-.043 1.06-.114 1.752-.214.692-.1 1.164-.206 1.415-.32.518-.214.888-.506 1.112-.877.224-.37.336-.84.336-1.41v-22.66l-10.236 26.657h-2.642c-.126-.47-.437-1.404-.934-2.8a405.095 405.095 0 0 0-1.206-3.357l-7.53-20.841v18.447c0 1.767.116 3.11.347 4.03.23.919.605 1.592 1.122 2.02.35.299.975.584 1.877.855.902.27 1.535.427 1.898.47v1.667h-12.794V698.5c.35-.043.92-.139 1.71-.289.79-.15 1.436-.41 1.94-.78.559-.399.936-1.072 1.132-2.02.196-.948.294-2.298.294-4.05v-15.028c0-.912-.112-1.67-.336-2.277-.223-.605-.559-1.086-1.006-1.442-.56-.442-1.133-.727-1.72-.855a12.5 12.5 0 0 0-1.783-.257v-1.667h13.696l7.34 20.03 6.188-16.268c.21-.599.412-1.311.608-2.138.196-.826.3-1.368.315-1.624h13.192v1.667c-.447.029-.916.086-1.405.171-.49.086-.958.2-1.405.342-.546.185-.906.477-1.08.876-.175.4-.263.841-.263 1.326v21.483c0 .513.088.944.263 1.293.174.35.534.652 1.08.908.28.129.737.25 1.374.364.636.114 1.129.192 1.478.235v1.667zm29.447-22.594h-1.594c-.405-1.155-1.104-2.323-2.097-3.506-.993-1.183-1.979-1.881-2.957-2.095-.42-.1-1.004-.16-1.752-.181a67.216 67.216 0 0 0-1.856-.032h-4.32v11.714h3.062c.769 0 1.468-.093 2.097-.278.63-.186 1.203-.542 1.72-1.07.322-.327.647-.904.975-1.73.329-.827.542-1.547.64-2.16h1.594v12.655h-1.594c-.084-.598-.297-1.35-.64-2.255-.342-.905-.667-1.528-.975-1.87a3.578 3.578 0 0 0-1.636-1.059c-.63-.192-1.356-.288-2.181-.288h-3.062v8.743c0 .912.066 1.635.199 2.17.133.534.38.943.744 1.228.35.271.829.45 1.437.535.608.085 1.437.128 2.486.128.489 0 1.076-.007 1.761-.021a15.792 15.792 0 0 0 1.804-.129 11.088 11.088 0 0 0 1.647-.32c.51-.143.89-.35 1.143-.62.67-.698 1.426-1.764 2.265-3.196.839-1.432 1.391-2.504 1.657-3.217h1.53l-.566 9.448h-27.916V698.5c.392-.029.923-.086 1.594-.171.672-.086 1.147-.185 1.427-.3.53-.227.887-.516 1.07-.865.181-.35.272-.794.272-1.336V674.43c0-.514-.077-.937-.23-1.272-.155-.335-.525-.638-1.112-.909-.364-.17-.874-.328-1.531-.47a19.05 19.05 0 0 0-1.49-.278v-1.667h26.385v7.738zm38.78-6.071c-.39.043-.95.121-1.677.235a4.353 4.353 0 0 0-1.972.834c-.517.385-.884 1.044-1.1 1.977-.217.934-.326 2.305-.326 4.115v21.675h-3.733l-18.54-23.45v14.237c0 1.767.114 3.11.345 4.03.23.919.605 1.592 1.122 2.02.378.313.979.591 1.804.833.825.243 1.482.406 1.972.492v1.667h-12.794V698.5a12.884 12.884 0 0 0 1.877-.31c.706-.164 1.297-.417 1.772-.759.545-.413.92-1.037 1.122-1.87.203-.834.304-2.234.304-4.2v-14.365c0-.713-.108-1.386-.325-2.02a4.152 4.152 0 0 0-1.017-1.636 5.517 5.517 0 0 0-1.689-1.143 10.31 10.31 0 0 0-2.17-.652v-1.71h11.2l16.275 20.52v-11.478c0-1.824-.118-3.182-.356-4.072-.238-.891-.615-1.55-1.133-1.978-.405-.327-1.007-.609-1.804-.844-.797-.235-1.44-.395-1.93-.481v-1.667h12.774v1.667zm29.532 7.011h-1.615c-.433-1.296-1.13-2.686-2.087-4.168-.958-1.482-1.842-2.28-2.653-2.394-.447-.057-1-.107-1.657-.15a26.694 26.694 0 0 0-1.699-.064h-.986v23.792c0 .513.091.965.273 1.357.182.392.538.702 1.07.93.321.128.821.26 1.5.395a23.15 23.15 0 0 0 1.73.289v1.667h-16.59V698.5l1.709-.182c.734-.078 1.234-.174 1.5-.288.545-.228.908-.535 1.09-.92.182-.384.273-.84.273-1.368v-24.005h-.986c-.476 0-1.042.022-1.699.064-.657.043-1.21.093-1.657.15-.81.114-1.695.912-2.653 2.394-.958 1.482-1.654 2.872-2.087 4.168h-1.615v-8.678H1153v8.678z" id="z"/><filter x="-1.9%" y="-15.6%" width="103.8%" height="143.8%" filterUnits="objectBoundingBox" id="y"><feOffset dy="2" in="SourceAlpha" result="shadowOffsetOuter1"/><feGaussianBlur stdDeviation="2" in="shadowOffsetOuter1" result="shadowBlurOuter1"/><feColorMatrix values="0 0 0 0 0 0 0 0 0 0 0 0 0 0 0 0 0 0 0.5 0" in="shadowBlurOuter1"/></filter></defs><g fill="none" fill-rule="evenodd"><use fill="url(#a)" xlink:href="#b"/><path stroke="#979797" d="M.5.5h1919v1079H.5z"/><path d="M99 1012.048c437.071-246.292 915.576-275.992 1435.513-89.098 190.173 68.359 452.129 264.989 449.467 265.999-2.662 1.01-467.806-13.256-468.728-11.669-.33.57-269.204-200.362-529.503-237.406-286.48-40.77-582.063-16.712-886.749 72.174z" fill="url(#c)" fill-rule="nonzero"/><use fill="#000" filter="url(#d)" xlink:href="#e"/><use stroke="#B6E4E8" stroke-width="6" xlink:href="#e"/><circle fill="url(#f)" cx="968.5" cy="539.5" r="262.5"/><g fill-rule="nonzero"><use fill="#000" filter="url(#g)" xlink:href="#h"/><use fill-opacity=".713" fill="#FFF" fill-rule="evenodd" xlink:href="#h"/></g><use fill="#000" filter="url(#i)" xlink:href="#j"/><use fill="#B6E4E8" xlink:href="#j"/><use fill="#000" filter="url(#k)" xlink:href="#l"/><use fill="#B6E4E8" xlink:href="#l"/><use fill="#000" filter="url(#m)" xlink:href="#n"/><use fill="#B6E4E8" xlink:href="#n"/><g fill-rule="nonzero"><use fill="#000" filter="url(#o)" xlink:href="#p"/><use fill="#B6E4E8" fill-rule="evenodd" xlink:href="#p"/></g><g fill-rule="nonzero"><use fill="#000" filter="url(#q)" xlink:href="#r"/><use fill="#B6E4E8" fill-rule="evenodd" xlink:href="#r"/></g><g><use fill="#000" filter="url(#s)" xlink:href="#t"/><use fill="#B6E4E8" xlink:href="#t"/></g><g><use fill="#000" filter="url(#u)" xlink:href="#v"/><use fill="#B6E4E8" xlink:href="#v"/></g><g><use fill="#000" filter="url(#w)" xlink:href="#x"/><use fill="#B6E4E8" xlink:href="#x"/></g><g><use fill="#000" filter="url(#y)" xlink:href="#z"/><use fill="#B6E4E8" xlink:href="#z"/></g><path d="M-41 1012.048c437.071-246.292 915.576-275.992 1435.513-89.098 190.173 68.359 452.129 264.989 449.467 265.999-2.662 1.01-467.806-13.256-468.728-11.669-.33.57-269.204-200.362-529.503-237.406-286.48-40.77-582.063-16.712-886.749 72.174z" fill="url(#c)" fill-rule="nonzero" transform="matrix(-1 0 0 1 1803 0)"/></g></svg>